<svg width="40" height="41" viewBox="0 0 40 41" fill="none" xmlns="http://www.w3.org/2000/svg">
<path opacity="0.1" d="M6.66663 18.7334C6.66663 26.0972 12.6361 32.0667 20 32.0667C27.3638 32.0667 33.3333 26.0972 33.3333 18.7334H6.66663Z" fill="#4CAF50"/>
<path d="M6.66663 18.7334C6.66663 26.0972 12.6361 32.0667 20 32.0667C27.3638 32.0667 33.3333 26.0972 33.3333 18.7334" stroke="#4CAF50" stroke-width="2.08333" stroke-linecap="round"/>
<path d="M15 17.9004C16.3807 17.9004 17.5 16.7811 17.5 15.4004C17.5 14.0197 16.3807 12.9004 15 12.9004C13.6193 12.9004 12.5 14.0197 12.5 15.4004C12.5 16.7811 13.6193 17.9004 15 17.9004Z" fill="#FF9800"/>
<path d="M15 12.9007C15 12.9007 15.4167 12.0674 16.25 12.0674" stroke="#4CAF50" stroke-width="1.25" stroke-linecap="round"/>
<path d="M25 16.6501C26.8409 16.6501 28.3333 15.7173 28.3333 14.5667C28.3333 13.4161 26.8409 12.4834 25 12.4834C23.159 12.4834 21.6666 13.4161 21.6666 14.5667C21.6666 15.7173 23.159 16.6501 25 16.6501Z" fill="#FF9800"/>
<path d="M20 16.2337C20 16.2337 21.6667 14.567 23.3333 15.4003C23.3333 15.4003 21.6667 17.067 20 16.2337Z" fill="#4CAF50"/>
<path d="M6.66663 32.0674H33.3333" stroke="#4CAF50" stroke-width="1.66667" stroke-linecap="round"/>
</svg>
