<?xml version="1.0" encoding="utf-8"?>
<!-- Generator: Adobe Illustrator 27.5.0, SVG Export Plug-In . SVG Version: 6.00 Build 0)  -->
<svg version="1.1" xmlns="http://www.w3.org/2000/svg" xmlns:xlink="http://www.w3.org/1999/xlink" x="0px" y="0px"
	 viewBox="0 0 1122 1122" style="enable-background:new 0 0 1122 1122;" xml:space="preserve">
<g id="BG">
	<rect y="0" style="fill:#E6F5EF;" width="1122" height="1122"/>
</g>
<g id="Object">
	<g>
		<g>
			<path style="fill:#896954;" d="M631.862,245.856c-0.538-0.04-1.063-0.151-1.575-0.298c-12.074,0.802-23.111,29.297-30.484,48.666
				c-2.628,8.264-4.988,16.598-7.684,24.821c-0.347,1.19-0.697,2.378-1.057,3.562c-0.214,0.767-0.44,1.529-0.648,2.297
				c-0.222,5.202-1.369,10.029-3.446,14.663c-3.397,16.93-5.27,34.222-9.184,51.038c-3.171,13.629-7.481,28.94-0.488,40.92
				c0.816,1.399,1.818,2.75,3.203,3.501c2.521,1.37,5.724,0.364,7.835-1.619c2.11-1.984,3.368-4.759,4.573-7.457
				c5.356-11.993,10.716-23.994,15.418-36.29c13.134-34.345,21.025-70.704,26.753-107.265
				C637.016,270.034,638.358,256.17,631.862,245.856z"/>
			<path style="fill:#AA8971;" d="M610.099,273.091c-0.499-0.277-1.044-0.563-1.6-0.469c0,0-0.018,0.007-0.029,0.009
				c-0.288,0.434-0.581,0.865-0.872,1.297c-0.197,0.913-0.563,1.796-1.028,2.65c-0.119,0.627-0.239,1.254-0.358,1.881
				c5.108,1.974,10.967,3.911,15.76,1.228C618.014,277.489,614.057,275.29,610.099,273.091z"/>
			<path style="fill:#AA8971;" d="M608.59,294.445c-1.641-0.626-3.298-1.261-4.759-2.269c-0.882-0.609-1.835-1.348-2.804-1.713
				c-0.182,0.542-0.373,1.08-0.55,1.625c-0.503,1.548-0.983,3.102-1.466,4.654c3.855,2.873,8.882,3.626,13.637,4.202
				c2.6,0.316,5.914,0.229,6.957-2.297C615.932,297.247,612.261,295.846,608.59,294.445z"/>
			<path style="fill:#AA8971;" d="M595.625,309.511c-0.164-0.03-0.334-0.031-0.502-0.054c-0.882,2.899-1.778,5.791-2.713,8.671
				c7.953,2.826,16.804,2.741,24.661-0.319C610.48,313.691,603.17,310.863,595.625,309.511z"/>
			<path style="fill:#AA8971;" d="M609.131,338.145c-5.833-2.794-11.666-5.589-17.5-8.383c-0.511-0.245-1.057-0.495-1.611-0.41
				c-0.011,0.002-0.021,0.008-0.032,0.01c-0.492,3.227-1.374,6.319-2.639,9.327c0.062,0.071,0.098,0.154,0.166,0.221
				c0.776,0.769,1.826,1.136,2.839,1.482c6.344,2.159,13.048,4.342,19.558,2.89c0.655-0.146,1.352-0.362,1.756-0.924
				C612.767,340.828,610.793,338.941,609.131,338.145z"/>
		</g>
		<g>
			<g>
				<path style="fill:#8EAD93;" d="M532.094,307.47c-1.768-2.324-3.788-3.978-6.669-3.684c-5.596,0.569-8.23,7.293-9.103,12.398
					c-1.15,6.723,1.06,13.128,3.235,19.533c2.408,7.092,3.856,14.411,5.717,21.642c4.232,16.449,11.806,31.559,19.231,46.75
					c0.716,1.465,2.91,0.539,2.167-0.906c-1.977-3.84-3.941-7.705-5.841-11.603c-3.995-11.189-7.9-22.615-8.115-34.472
					c-0.123-6.809,1.401-13.282,2.41-19.896c0.534-3.503,0.803-7.043,0.902-10.613c0.095-3.415,0.292-6.939-0.021-10.367
					C535.693,312.82,534.141,310.161,532.094,307.47z"/>
				<path style="fill:#8EAD93;" d="M542.678,393.271c-1.777-4.48-3.852-8.837-6.215-13.037c-1.543-2.744-3.155-5.513-4.983-8.101
					c-1.903-3.591-3.805-7.184-5.712-10.773c-5.214-9.814-10.663-19.824-18.637-27.551c-1.954-1.894-4.057-3.668-6.309-5.14
					c-1.997-1.306-4.356-2.324-6.634-1.611c-4.585,1.435-3.332,7.367-1.848,11.017c2.235,5.492,6.042,9.519,10.589,13.002
					c5.163,3.954,10.466,7.703,15.711,11.53c2.789,2.035,5.62,4.107,8.005,6.68c2.334,2.518,4.213,5.482,6.008,8.425
					c1.025,1.681,2.001,3.391,2.931,5.126c0.241,0.457,0.481,0.914,0.721,1.372c2.267,4.383,4.233,8.925,5.873,13.586
					c0.363,1.033,1.559,0.808,1.891,0.043c0.315,0.008,0.642-0.333,0.471-0.705C543.942,395.836,543.316,394.551,542.678,393.271z"
					/>
				<path style="fill:#8EAD93;" d="M552.648,334.749c-4.432-1.635-9.108,0.982-12.088,4.072c-7.539,7.815-7.641,19.988-5.48,30.635
					c1.454,7.165,3.589,14.255,5.861,21.217c1.745,5.349,3.684,10.662,5.856,15.868c0.786,1.979,1.583,3.953,2.382,5.926
					c0.493,1.218,2.239,0.489,1.745-0.729c-2.511-6.184-5.022-12.377-7.122-18.713c-1.102-3.325-2.089-6.688-2.886-10.094
					c-0.713-3.048-1.613-6.417-1.587-9.537c0.026-3.113,2.18-5.781,3.821-8.117c1.716-2.444,3.608-4.75,5.666-6.876
					c3.45-3.564,7.755-7.026,8.838-12.338C558.527,341.787,557.059,336.376,552.648,334.749z"/>
				<path style="fill:#7A937D;" d="M552.164,337.643c-2.281,2.729-4.496,5.49-6.299,8.567c-1.628,2.779-2.989,5.706-4.172,8.699
					c-1.203,3.046-2.259,6.191-2.736,9.442c-0.515,3.517-0.397,7.147-0.497,10.692c-0.008,0.29,0.443,0.35,0.449,0.06
					c0.071-3.402-0.029-6.873,0.406-10.254c0.435-3.376,1.531-6.623,2.76-9.784c1.208-3.104,2.611-6.141,4.305-9.01
					c1.738-2.943,3.818-5.625,5.952-8.286C552.417,337.664,552.25,337.539,552.164,337.643z"/>
				<path style="fill:#7A937D;" d="M542.653,339.274c0.27,3.129,0.887,6.245,2.024,9.181c0.094,0.243,0.454,0.087,0.371-0.155
					c-1.018-2.959-1.807-5.94-2.185-9.052C542.846,339.112,542.642,339.14,542.653,339.274z"/>
				<path style="fill:#7A937D;" d="M538.253,345.512c0.745,3.689,1.696,7.324,2.896,10.893c0.08,0.238,0.438,0.086,0.36-0.15
					c-1.168-3.548-2.215-7.134-3.098-10.764C538.388,345.393,538.232,345.41,538.253,345.512z"/>
				<path style="fill:#7A937D;" d="M535.827,354.206c-0.054-0.118-0.239-0.042-0.187,0.079c1.142,2.681,2.295,5.362,3.586,7.976
					c0.11,0.221,0.464,0.077,0.357-0.149C538.328,359.477,537.035,356.863,535.827,354.206z"/>
				<path style="fill:#7A937D;" d="M550.056,352.894c-2.944,2.942-6.308,5.36-9.989,7.298c-0.209,0.11-0.07,0.452,0.143,0.342
					c3.738-1.931,7.079-4.466,10.02-7.469C550.326,352.966,550.154,352.795,550.056,352.894z"/>
				<path style="fill:#7A937D;" d="M552.318,345.928c-2.888,2.218-5.953,4.091-9.1,5.912c-0.206,0.119-0.074,0.464,0.146,0.349
					c3.231-1.686,6.229-3.843,9.043-6.147C552.479,345.983,552.392,345.871,552.318,345.928z"/>
				<path style="fill:#7A937D;" d="M553.855,339.733c-1.734,1.037-3.539,1.913-5.391,2.716c-0.244,0.106-0.084,0.49,0.16,0.381
					c1.866-0.832,3.642-1.832,5.371-2.919C554.119,339.833,553.978,339.659,553.855,339.733z"/>
				<path style="fill:#7A937D;" d="M525.221,310.521c2.644,16.606,3.568,33.403,4.652,50.164c0.289,4.463,0.573,9.023,2.37,13.179
					c0.11,0.254,0.501,0.091,0.396-0.165c-1.58-3.877-1.982-7.991-2.259-12.131c-0.277-4.146-0.53-8.294-0.804-12.44
					c-0.544-8.222-1.169-16.441-2.122-24.627c-0.545-4.688-1.241-9.354-2.081-13.998
					C525.355,310.406,525.206,310.424,525.221,310.521z"/>
				<path style="fill:#7A937D;" d="M531.109,311.884c-1.222,3.276-4.102,6.183-4.329,9.787c-0.01,0.163,0.219,0.194,0.252,0.034
					c0.732-3.586,3.142-6.321,4.269-9.742C531.341,311.837,531.156,311.758,531.109,311.884z"/>
				<path style="fill:#7A937D;" d="M534.037,322.112c-1.941,3.721-3.959,7.367-6.032,11.015c-0.103,0.182,0.205,0.358,0.32,0.183
					c2.269-3.491,4.281-7.288,5.943-11.102C534.333,322.057,534.11,321.972,534.037,322.112z"/>
				<path style="fill:#7A937D;" d="M533.56,335.606c-1.484,2.512-3.093,4.941-4.804,7.304c-0.161,0.222,0.18,0.48,0.339,0.257
					c1.706-2.388,3.266-4.867,4.707-7.423C533.88,335.605,533.641,335.467,533.56,335.606z"/>
				<path style="fill:#7A937D;" d="M528.685,339.198c-2.839-1.85-5.138-4.383-6.647-7.421c-0.057-0.114-0.238-0.041-0.184,0.076
					c1.469,3.147,3.695,5.746,6.622,7.622C528.662,339.595,528.873,339.32,528.685,339.198z"/>
				<path style="fill:#7A937D;" d="M527.519,328.903c-1.475-0.756-2.831-1.727-3.981-2.924c-0.849-0.884-1.565-1.859-2.549-2.604
					c-0.056-0.042-0.119,0.042-0.065,0.087c1.15,0.966,1.937,2.27,3.008,3.318c1.021,0.998,2.19,1.792,3.453,2.452
					C527.586,329.337,527.722,329.007,527.519,328.903z"/>
				<path style="fill:#7A937D;" d="M526.595,318.366c-1.138-1.116-2.189-2.323-3.117-3.618c-0.738-1.029-1.29-2.304-2.277-3.115
					c-0.061-0.05-0.131,0.046-0.073,0.097c1.097,0.975,1.743,2.72,2.629,3.913c0.796,1.07,1.693,2.045,2.653,2.969
					C526.552,318.75,526.734,318.503,526.595,318.366z"/>
				<path style="fill:#7A937D;" d="M529.388,349.655c-1.177-0.739-1.906-2.016-2.667-3.142c-0.925-1.369-1.812-2.767-2.434-4.302
					c-0.048-0.116-0.226-0.042-0.18,0.075c0.617,1.578,1.422,3.02,2.352,4.432c0.785,1.193,1.518,2.404,2.745,3.183
					C529.369,350.008,529.556,349.761,529.388,349.655z"/>
				<path style="fill:#7A937D;" d="M526.551,365.183c-2.004-2.674-4.694-4.775-7.091-7.078c-2.826-2.717-5.547-5.542-8.253-8.379
					c-5.149-5.401-10.335-10.769-15.435-16.217c-0.054-0.058-0.152,0.017-0.098,0.077c4.975,5.554,10.152,10.926,15.283,16.335
					c2.492,2.627,4.989,5.251,7.575,7.788c2.578,2.53,5.55,4.801,7.723,7.705C526.4,365.607,526.696,365.376,526.551,365.183z"/>
				<path style="fill:#7A937D;" d="M499.701,329.99c1.523,4.022,2.801,8.112,3.992,12.242c0.059,0.207,0.422,0.112,0.37-0.099
					c-1.044-4.181-2.477-8.263-4.138-12.237C499.865,329.753,499.646,329.845,499.701,329.99z"/>
				<path style="fill:#7A937D;" d="M501.053,339.107c-1.533-0.074-3.048-0.294-4.532-0.694c-1.062-0.286-2.159-0.907-3.281-0.807
					c-0.092,0.008-0.096,0.164,0,0.167c1.23,0.034,2.443,0.727,3.631,1.032c1.361,0.349,2.745,0.514,4.148,0.554
					C501.181,339.363,501.217,339.115,501.053,339.107z"/>
				<path style="fill:#7A937D;" d="M508.413,338.52c0.447,3.33,0.785,6.679,1.301,9.999c0.042,0.268,0.452,0.216,0.418-0.053
					c-0.415-3.335-1.01-6.649-1.495-9.974C508.617,338.347,508.394,338.375,508.413,338.52z"/>
				<path style="fill:#7A937D;" d="M507.379,345.917c-2.145,0.207-4.294,0.5-6.431,0.777c-0.147,0.02-0.116,0.232,0.028,0.225
					c2.145-0.107,4.329-0.335,6.432-0.769C507.555,346.119,507.531,345.902,507.379,345.917z"/>
				<path style="fill:#7A937D;" d="M513.554,344.765c1.276,3.342,2.092,6.814,2.592,10.351c0.036,0.254,0.428,0.204,0.395-0.05
					c-0.459-3.583-1.455-7.032-2.832-10.366C513.667,344.601,513.515,344.665,513.554,344.765z"/>
				<path style="fill:#7A937D;" d="M514.091,352.764c-1.155-0.322-2.338-0.558-3.509-0.817c-0.963-0.214-1.96-0.562-2.954-0.413
					c-0.112,0.017-0.09,0.185,0.022,0.174c1.031-0.105,2.112,0.313,3.101,0.553c1.086,0.263,2.173,0.552,3.272,0.757
					C514.169,353.045,514.238,352.805,514.091,352.764z"/>
			</g>
			<g>
				<path style="fill:#8EAD93;" d="M504.361,328.372c1.609,3.043,3.697,5.89,5.64,8.699c2.031,2.938,4.188,5.758,6.548,8.402
					c4.455,4.991,9.263,9.584,12.876,15.357c6.29,10.052,9.254,21.759,12.011,33.315c0.535,4.304,0.998,8.614,1.436,12.911
					c0.165,1.615,2.51,1.195,2.31-0.423c-2.067-16.782-3.965-33.577-9.395-49.67c-2.387-7.075-5.167-13.999-7.019-21.255
					c-1.673-6.555-3.317-13.128-7.949-18.134c-3.517-3.802-9.394-7.998-14.394-5.422c-2.574,1.326-3.364,3.815-3.578,6.727
					C502.599,322.25,502.75,325.326,504.361,328.372z"/>
				<path style="fill:#8EAD93;" d="M541.346,400.806c0.06,0.406,0.519,0.513,0.779,0.335c0.696,0.459,1.82-0.004,1.561-1.068
					c-1.169-4.801-2.001-9.679-2.493-14.59c-0.049-0.514-0.095-1.029-0.143-1.543c-0.168-1.962-0.283-3.928-0.341-5.896
					c-0.102-3.446-0.144-6.955,0.437-10.339c0.594-3.458,1.837-6.739,3.063-9.966c2.306-6.069,4.706-12.104,6.874-18.236
					c1.91-5.399,2.903-10.852,1.779-16.673c-0.747-3.868-2.936-9.523-7.56-8.224c-2.298,0.646-3.719,2.786-4.68,4.97
					c-1.084,2.463-1.878,5.097-2.482,7.751c-2.466,10.827-1.569,22.189-0.584,33.258c0.36,4.048,0.728,8.096,1.092,12.145
					c-0.12,3.166,0.041,6.366,0.244,9.507c0.312,4.809,0.951,9.593,1.907,14.317C540.961,397.975,541.138,399.394,541.346,400.806z"
					/>
				<path style="fill:#8EAD93;" d="M502.486,365.167c3.807,3.86,9.304,4.413,14.139,5.516c2.885,0.659,5.729,1.559,8.501,2.67
					c2.649,1.062,5.909,2.123,7.63,4.717c1.725,2.6,2.809,5.915,3.875,8.858c1.19,3.289,2.198,6.645,3.089,10.033
					c1.697,6.456,2.973,13.015,4.244,19.568c0.251,1.29,2.111,0.948,1.86-0.341c-0.407-2.089-0.816-4.178-1.238-6.266
					c-1.021-5.548-2.295-11.058-3.752-16.493c-1.896-7.073-3.974-14.18-6.666-20.977c-3.999-10.102-10.727-20.247-21.309-22.682
					c-4.184-0.963-9.53-0.604-12.352,3.184C497.699,356.725,499.422,362.06,502.486,365.167z"/>
				<path style="fill:#7A937D;" d="M502.493,355.115c3.401,1.043,6.764,2.147,9.953,3.742c2.88,1.44,5.619,3.15,8.243,5.013
					c2.671,1.896,5.272,3.955,7.445,6.42c2.35,2.665,4.233,5.772,6.251,8.688c0.165,0.238-0.18,0.535-0.343,0.295
					c-1.916-2.812-3.726-5.776-5.936-8.371c-2.208-2.592-4.897-4.714-7.651-6.691c-2.706-1.942-5.539-3.722-8.525-5.202
					c-3.062-1.517-6.269-2.63-9.509-3.695C502.292,355.271,502.364,355.075,502.493,355.115z"/>
				<path style="fill:#7A937D;" d="M511.353,351.292c1.481,2.769,2.664,5.717,3.314,8.797c0.054,0.255-0.333,0.321-0.395,0.072
					c-0.762-3.035-1.727-5.963-3.108-8.777C511.103,351.262,511.29,351.173,511.353,351.292z"/>
				<path style="fill:#7A937D;" d="M518.444,354.118c1.39,3.498,2.575,7.063,3.517,10.709c0.063,0.244-0.32,0.312-0.384,0.071
					c-0.957-3.611-2.037-7.186-3.278-10.71C518.267,354.092,518.406,354.021,518.444,354.118z"/>
				<path style="fill:#7A937D;" d="M525.222,360.08c-0.02-0.129,0.177-0.166,0.199-0.036c0.506,2.87,1.002,5.746,1.347,8.64
					c0.029,0.245-0.347,0.318-0.38,0.07C526.002,365.862,525.659,362.965,525.222,360.08z"/>
				<path style="fill:#7A937D;" d="M512.582,366.744c4.073,0.859,8.211,1.049,12.353,0.664c0.235-0.021,0.305,0.341,0.067,0.365
					c-4.185,0.421-8.369,0.121-12.472-0.791C512.395,366.953,512.446,366.716,512.582,366.744z"/>
				<path style="fill:#7A937D;" d="M506.885,362.142c3.63,0.282,7.221,0.179,10.852-0.012c0.237-0.013,0.315,0.348,0.068,0.372
					c-3.627,0.351-7.317,0.179-10.932-0.216C506.78,362.276,506.792,362.135,506.885,362.142z"/>
				<path style="fill:#7A937D;" d="M502.217,357.789c2.019-0.077,4.009-0.328,6-0.666c0.262-0.045,0.338,0.365,0.075,0.407
					c-2.018,0.321-4.052,0.453-6.094,0.485C502.05,358.017,502.073,357.795,502.217,357.789z"/>
				<path style="fill:#7A937D;" d="M510.271,317.685c6.847,15.358,15.238,29.938,23.476,44.575
					c2.193,3.897,4.444,7.873,5.204,12.337c0.047,0.272-0.37,0.349-0.422,0.078c-0.792-4.11-2.7-7.778-4.727-11.397
					c-2.03-3.626-4.082-7.24-6.114-10.864c-4.032-7.187-7.992-14.416-11.661-21.796c-2.101-4.226-4.065-8.516-5.894-12.866
					C510.096,317.661,510.231,317.595,510.271,317.685z"/>
				<path style="fill:#7A937D;" d="M506.08,322.04c2.813,2.079,6.811,2.943,8.969,5.839c0.098,0.131-0.078,0.281-0.193,0.165
					c-2.57-2.605-6.082-3.582-8.893-5.834C505.86,322.128,505.972,321.96,506.08,322.04z"/>
				<path style="fill:#7A937D;" d="M509.208,332.209c3.656,2.058,7.338,4.013,11.065,5.938c0.185,0.096,0.023,0.412-0.169,0.327
					c-3.806-1.686-7.564-3.771-11.038-6.06C508.93,332.324,509.071,332.131,509.208,332.209z"/>
				<path style="fill:#7A937D;" d="M516.971,343.256c2.614,1.295,5.289,2.453,8.012,3.499c0.255,0.098,0.111,0.5-0.145,0.4
					c-2.733-1.07-5.392-2.296-7.994-3.652C516.703,343.43,516.828,343.185,516.971,343.256z"/>
				<path style="fill:#7A937D;" d="M523.017,343.606c1.369-3.1,1.914-6.477,1.521-9.846c-0.015-0.126,0.177-0.163,0.195-0.035
					c0.487,3.438,0.039,6.83-1.39,10C523.252,343.926,522.926,343.812,523.017,343.606z"/>
				<path style="fill:#7A937D;" d="M518.376,334.343c0.824-1.439,1.43-2.992,1.74-4.623c0.229-1.205,0.297-2.412,0.715-3.573
					c0.024-0.067,0.123-0.03,0.103,0.037c-0.436,1.438-0.385,2.96-0.711,4.422c-0.311,1.393-0.858,2.697-1.555,3.938
					C518.556,334.744,518.262,334.54,518.376,334.343z"/>
				<path style="fill:#7A937D;" d="M513.4,325.008c0.345-1.556,0.567-3.14,0.638-4.733c0.057-1.265-0.177-2.634,0.209-3.852
					c0.024-0.075,0.135-0.033,0.114,0.041c-0.388,1.416,0.023,3.23-0.069,4.713c-0.082,1.331-0.303,2.638-0.602,3.936
					C513.646,325.307,513.358,325.2,513.4,325.008z"/>
				<path style="fill:#7A937D;" d="M528.134,352.753c0.583-1.261,0.498-2.729,0.521-4.088c0.028-1.651,0.009-3.307-0.307-4.934
					c-0.024-0.123,0.167-0.158,0.192-0.035c0.344,1.66,0.456,3.307,0.447,4.997c-0.007,1.428,0.039,2.842-0.563,4.165
					C528.342,353.037,528.05,352.933,528.134,352.753z"/>
				<path style="fill:#7A937D;" d="M538.985,364.216c0.219-3.334,1.328-6.563,2.079-9.801c0.886-3.819,1.625-7.671,2.344-11.525
					c1.368-7.336,2.784-14.665,4.085-22.012c0.014-0.078,0.137-0.069,0.124,0.011c-1.138,7.37-2.545,14.696-3.893,22.029
					c-0.655,3.562-1.317,7.122-2.099,10.659c-0.78,3.528-2.031,7.052-2.268,10.672C539.343,364.49,538.969,364.457,538.985,364.216z
					"/>
				<path style="fill:#7A937D;" d="M542.28,320.074c0.919,4.201,2.08,8.326,3.336,12.436c0.063,0.207-0.293,0.325-0.364,0.119
					c-1.407-4.073-2.434-8.276-3.21-12.512C542.014,319.964,542.247,319.922,542.28,320.074z"/>
				<path style="fill:#7A937D;" d="M546.122,328.451c1.244-0.898,2.393-1.91,3.419-3.054c0.734-0.82,1.315-1.939,2.31-2.467
					c0.082-0.043,0.17,0.085,0.091,0.139c-1.013,0.699-1.651,1.941-2.48,2.846c-0.95,1.036-2.02,1.93-3.175,2.728
					C546.155,328.735,545.989,328.547,546.122,328.451z"/>
				<path style="fill:#7A937D;" d="M539.634,331.976c1.443,3.034,2.987,6.026,4.366,9.089c0.111,0.247-0.26,0.428-0.379,0.184
					c-1.472-3.022-2.782-6.123-4.19-9.175C539.369,331.941,539.571,331.844,539.634,331.976z"/>
				<path style="fill:#7A937D;" d="M544.537,337.61c1.911-0.997,3.871-1.925,5.813-2.858c0.133-0.064,0.223,0.132,0.098,0.204
					c-1.855,1.081-3.811,2.081-5.81,2.865C544.499,337.875,544.402,337.68,544.537,337.61z"/>
				<path style="fill:#7A937D;" d="M538.735,340.014c0.755,3.497,1.965,6.852,3.476,10.089c0.109,0.232-0.247,0.404-0.358,0.173
					c-1.571-3.253-2.619-6.687-3.283-10.232C538.55,339.938,538.712,339.909,538.735,340.014z"/>
				<path style="fill:#7A937D;" d="M542.649,347.01c0.792-0.901,1.655-1.743,2.494-2.6c0.691-0.704,1.336-1.539,2.25-1.958
					c0.103-0.047,0.177,0.107,0.076,0.158c-0.921,0.474-1.598,1.414-2.296,2.155c-0.766,0.814-1.52,1.649-2.328,2.421
					C542.737,347.289,542.549,347.125,542.649,347.01z"/>
			</g>
		</g>
		<g>
			<path style="fill:#77917B;" d="M461.378,341.064c-0.103-0.061-0.207-0.118-0.309-0.179c-0.154-0.09-0.307-0.181-0.463-0.269
				c-3.837-2.265-7.795-4.32-11.831-6.202c-0.872-0.407-1.52,0.947-0.643,1.352c0.083,0.039,0.163,0.079,0.245,0.116
				c-0.312-0.077-0.625-0.155-0.933-0.226c-0.404-0.093-0.626,0.545-0.229,0.7c3.449,1.346,6.863,2.749,10.134,4.491
				c3.277,1.745,6.175,4.071,9.413,5.847c0.381,0.209,0.876-0.145,0.832-0.566C467.338,343.661,463.234,342.18,461.378,341.064z"/>
			<path style="fill:#98B99D;" d="M458.809,317.56c-0.274-0.493-1.075-0.499-1.404-0.074c-0.883,1.142-0.762,1.925-0.512,3.264
				c0.577,3.074,2.307,6.416,3.575,9.256c0.811,1.814,1.705,3.576,2.626,5.321c1.051,2.385,2.208,4.789,3.772,6.868
				c0.794,1.416,1.585,2.836,2.356,4.272c0.241,0.45,0.882,0,0.652-0.445c-0.241-0.465-0.467-0.94-0.702-1.409
				c0.84,0.331,1.739-0.893,0.93-1.626c-3.703-3.353-5.7-8.706-7.415-13.282C461.22,325.796,460.819,321.176,458.809,317.56z"/>
			<path style="fill:#98B99D;" d="M450.994,321.899c-0.219-0.401-0.895-0.518-1.244-0.235c-0.59,0.479-0.953,0.804-1.497,1.334
				c-0.254,0.247-0.295,0.814-0.058,1.09c2.241,2.596,4.505,5.173,6.766,7.753c3.526,5.237,7.534,10.174,12.147,14.415
				c0.872,0.801,1.939-0.547,1.167-1.376C461.627,337.748,455.675,330.497,450.994,321.899z"/>
			<path style="fill:#8AA88F;" d="M466.724,324.479c0.037,3.861-1.731,7.433-1.679,11.308c0.009,0.678,0.068,1.348,0.149,2.016
				c-0.05,2.976,0.332,5.985,2.289,8.285c0.064,0.166,0.125,0.334,0.189,0.5c0.172,0.446,0.697,0.288,0.767-0.094
				c0.49-0.185,0.859-0.843,0.52-1.373c-2.455-3.84-2.069-8.924-1.004-13.185c0.677-2.709,1.724-5.099,0.698-7.845
				C468.252,323.016,466.714,323.361,466.724,324.479z"/>
			<path style="fill:#8AA88F;" d="M459.331,329.369c-1.137-2.025-2.331-4.017-3.696-5.906c-0.728-1.009-2.26,0.035-1.596,1.087
				c1.259,1.993,2.512,3.993,3.769,5.991c2.876,5.119,5.349,10.476,9.103,15.05c0.309,0.375,0.74,0.431,1.108,0.311
				c0.172,0.237,0.333,0.484,0.507,0.72c0.329,0.449,0.953-0.004,0.701-0.478c-0.166-0.312-0.348-0.615-0.516-0.927
				c0.055-0.224,0.009-0.477-0.193-0.72c-0.274-0.332-0.516-0.684-0.777-1.024C465.086,338.691,462.235,334.012,459.331,329.369z"/>
			<path style="fill:#D9924E;" d="M470.684,366.453c3.316,4.347,6.307,8.931,9.401,13.439c6.859,9.993,14.23,19.623,21.597,29.247
				c1.497,1.955,3.017,3.935,4.965,5.441c1.948,1.506,4.407,2.511,6.852,2.218c1.148-0.138,2.285-0.576,3.119-1.376
				c2.168-2.079,1.617-5.677,0.449-8.444c-1.652-3.913-4.173-7.384-6.543-10.909c-9.813-14.598-17.287-30.634-26.557-45.581
				c-1.297-2.09-2.677-4.212-4.682-5.638c-3.33-2.368-8.053-2.352-11.605-0.332c-2.829,1.609-7.345,6.547-6.668,10.209
				c0.358,1.932,3.034,3.786,4.289,5.196C467.176,362.031,468.972,364.209,470.684,366.453z"/>
			<g>
				<path style="fill:#CC8949;" d="M475.382,350.191c-2.572,2.744-5.365,5.21-8.646,6.98c-0.254,0.137,0.124,0.681,0.378,0.555
					c3.443-1.707,6.594-3.712,9.289-6.499C476.844,350.772,475.817,349.726,475.382,350.191z"/>
				<path style="fill:#CC8949;" d="M481.249,355.459c-1.104,2.022-2.624,3.399-4.584,4.337c-0.343,0.164,0.157,0.885,0.497,0.731
					c1.999-0.911,3.693-2.313,5.108-4.03C482.68,355.999,481.574,354.864,481.249,355.459z"/>
				<path style="fill:#CC8949;" d="M486.435,362.362c-0.466,0.72-1.037,1.272-1.724,1.72c-0.473,0.309,0.317,1.454,0.743,1.091
					c0.671-0.571,1.251-1.26,1.743-2.038C487.46,362.72,486.703,361.948,486.435,362.362z"/>
				<path style="fill:#CC8949;" d="M489.988,385.546c-0.378,0.217-0.67,0.566-1.021,0.824c-0.351,0.259-0.709,0.508-1.064,0.761
					c-0.38,0.27,0.226,1.161,0.616,0.906c0.366-0.238,0.728-0.48,1.098-0.712c0.369-0.232,0.8-0.376,1.141-0.648
					C491.213,386.312,490.494,385.255,489.988,385.546z"/>
				<path style="fill:#CC8949;" d="M502.39,386.945c-0.375,0.923-1.038,1.52-1.791,2.009c-0.404,0.262,0.226,1.185,0.637,0.935
					c0.861-0.525,1.561-1.268,2.255-2.015C503.949,387.384,502.719,386.136,502.39,386.945z"/>
				<path style="fill:#CC8949;" d="M507.369,396.016c-0.384,0.247-0.769,0.493-1.154,0.74c-0.388,0.249-0.863,0.352-1.237,0.618
					c-0.526,0.375,0.314,1.61,0.856,1.256c0.384-0.251,0.654-0.655,1.028-0.924c0.37-0.268,0.74-0.536,1.111-0.803
					C508.342,396.636,507.753,395.77,507.369,396.016z"/>
			</g>
		</g>
		<g>
			<path style="fill:#77917B;" d="M483.712,307.296c-0.106-0.125-0.218-0.246-0.325-0.371c-0.161-0.185-0.32-0.371-0.485-0.554
				c-4-4.64-8.251-9.059-12.681-13.289c-0.957-0.914-2.398,0.564-1.433,1.478c0.091,0.086,0.178,0.175,0.268,0.26
				c-0.374-0.239-0.746-0.478-1.116-0.706c-0.486-0.299-1.056,0.434-0.606,0.812c3.899,3.272,7.73,6.603,11.225,10.312
				c3.5,3.717,6.251,8.024,9.688,11.762c0.404,0.44,1.204,0.196,1.332-0.372C490.332,313.303,485.639,309.566,483.712,307.296z"/>
			<path style="fill:#98B99D;" d="M490.715,275.546c-0.141-0.763-1.181-1.124-1.796-0.715c-1.653,1.098-1.84,2.173-2.104,4.026
				c-0.602,4.258,0.181,9.375,0.581,13.632c0.257,2.72,0.647,5.408,1.077,8.088c0.318,3.57,0.768,7.212,1.89,10.607
				c0.412,2.195,0.817,4.394,1.187,6.604c0.116,0.692,1.15,0.388,1.047-0.292c-0.109-0.712-0.195-1.431-0.295-2.145
				c0.948,0.8,2.66-0.398,1.928-1.709c-3.346-5.999-3.591-13.851-3.811-20.568C490.23,287.337,491.741,281.142,490.715,275.546z"/>
			<path style="fill:#98B99D;" d="M478.623,277.757c-0.108-0.618-0.937-1.07-1.515-0.855c-0.979,0.365-1.595,0.628-2.538,1.079
				c-0.441,0.21-0.743,0.931-0.555,1.395c1.777,4.369,3.591,8.724,5.399,13.079c2.288,8.376,5.336,16.571,9.477,24.127
				c0.783,1.429,2.766,0.141,2.126-1.277C485.496,303.085,480.935,291.018,478.623,277.757z"/>
			<path style="fill:#8AA88F;" d="M497.98,288.046c-1.652,5.046-5.53,8.919-7.168,13.991c-0.286,0.887-0.503,1.785-0.693,2.69
				c-1.376,3.855-2.203,7.943-0.667,11.801c0.009,0.245,0.016,0.491,0.026,0.734c0.028,0.658,0.782,0.683,1.041,0.216
				c0.719-0.025,1.491-0.72,1.282-1.561c-1.507-6.084,1.235-12.536,4.498-17.618c2.075-3.231,4.491-5.884,4.364-9.911
				C500.615,286.812,498.459,286.584,497.98,288.046z"/>
			<path style="fill:#8AA88F;" d="M486.195,291.16c-0.589-3.138-1.267-6.26-2.214-9.322c-0.505-1.634-2.96-0.948-2.558,0.714
				c0.762,3.15,1.513,6.307,2.272,9.463c1.493,7.936,2.355,16.003,5.232,23.615c0.236,0.625,0.773,0.888,1.306,0.892
				c0.12,0.385,0.221,0.777,0.343,1.162c0.232,0.731,1.243,0.414,1.124-0.314c-0.079-0.479-0.182-0.955-0.264-1.435
				c0.17-0.268,0.221-0.618,0.066-1.024c-0.211-0.553-0.372-1.119-0.562-1.677C489.588,305.836,487.934,298.486,486.195,291.16z"/>
			<path style="fill:#EBEFEB;" d="M484.655,344.467c2.406,7.124,4.284,14.413,6.33,21.648c4.535,16.038,9.897,31.828,15.256,47.611
				c1.088,3.207,2.197,6.454,4.072,9.274c1.874,2.82,4.635,5.212,7.949,5.906c1.556,0.326,3.229,0.257,4.668-0.419
				c3.739-1.753,4.606-6.683,4.303-10.802c-0.428-5.825-2.185-11.456-3.721-17.092c-6.356-23.338-9.03-47.519-14.525-71.074
				c-0.768-3.295-1.632-6.666-3.616-9.406c-3.294-4.551-9.454-6.61-14.972-5.543c-4.394,0.85-12.452,5.294-13.181,10.363
				c-0.385,2.675,2.285,6.268,3.3,8.657C482.033,337.162,483.413,340.791,484.655,344.467z"/>
			<g>
				<path style="fill:#DDE0DD;" d="M497.937,325.352c-4.559,2.443-9.283,4.424-14.338,5.286c-0.391,0.066-0.138,0.942,0.248,0.89
					c5.238-0.707,10.225-1.932,14.963-4.375C499.585,326.753,498.708,324.938,497.937,325.352z"/>
				<path style="fill:#DDE0DD;" d="M503.26,334.798c-2.328,2.148-4.914,3.273-7.881,3.631c-0.518,0.063-0.185,1.221,0.326,1.171
					c3.004-0.306,5.83-1.387,8.429-3.001C504.886,336.131,503.945,334.165,503.26,334.798z"/>
				<path style="fill:#DDE0DD;" d="M506.975,346.074c-0.924,0.733-1.912,1.202-3.003,1.483c-0.753,0.194-0.227,2.034,0.488,1.748
					c1.125-0.449,2.185-1.091,3.168-1.887C508.154,346.992,507.508,345.654,506.975,346.074z"/>
				<path style="fill:#DDE0DD;" d="M501.396,377.841c-0.588,0.117-1.122,0.442-1.693,0.624c-0.571,0.182-1.147,0.349-1.721,0.522
					c-0.613,0.185-0.217,1.611,0.405,1.452c0.58-0.15,1.16-0.305,1.743-0.444c0.583-0.14,1.208-0.139,1.771-0.343
					C502.654,379.379,502.183,377.685,501.396,377.841z"/>
				<path style="fill:#DDE0DD;" d="M516.935,385.124c-0.894,1.037-2.022,1.523-3.217,1.83c-0.642,0.164-0.227,1.643,0.418,1.498
					c1.353-0.305,2.593-0.964,3.826-1.63C518.772,386.384,517.719,384.215,516.935,385.124z"/>
				<path style="fill:#DDE0DD;" d="M519.427,399.134c-0.609,0.152-1.219,0.305-1.829,0.455c-0.616,0.154-1.279,0.08-1.883,0.26
					c-0.851,0.257-0.3,2.235,0.562,2.014c0.61-0.158,1.139-0.565,1.746-0.752c0.6-0.187,1.201-0.372,1.801-0.557
					C520.422,400.37,520.035,398.982,519.427,399.134z"/>
			</g>
		</g>
		<g>
			<g>
				<path style="fill:#8AA88F;" d="M577.122,333.417c-1.01-0.084-1.929,0.503-2.11,1.544c-0.445,2.559-0.52,5.083-0.404,7.674
					c0.002,0.038,0.008,0.101,0.013,0.153c-0.204-0.795-0.406-1.591-0.666-2.358c-0.657-1.938-1.624-2.859-3.619-3.246
					c-0.91-0.177-2.065,0.746-1.825,1.742c0.854,3.552,1.815,7.088,3.188,10.467c-2.078-2.934-3.97-6.378-7.523-6.901
					c-1.395-0.206-2.144,1.214-1.653,2.296c-0.657-0.243-1.339-0.447-2.062-0.588c-0.897-0.175-1.093,1.198-0.216,1.393
					c4.039,0.903,6.425,4.694,9.288,7.606c-0.001,0.026-0.008,0.047-0.008,0.073c-0.01,2.852,1.903,7.996,5.275,8.162
					c2.564,0.126,6.986-2.661,7.278-5.333c0.198-1.813-1.602-3.564-2.127-5.222c-0.981-3.098-0.106-6.541,0.444-9.651
					C580.958,338.049,581.413,333.772,577.122,333.417z"/>
				<path style="fill:#77917B;" d="M578.756,313.952c-2.134-6.419-9.244-4.139-13.86-0.527c-4.729-3.985-11.722,1.031-14.075,6.201
					c-4.076-0.131-7.708,1.661-9.418,5.731c-0.925,2.203-1.016,4.374,0.153,6.005c-2.784,2.406-4.79,5.948-2.535,9.553
					c1.945,3.108,5.301,2.915,8.386,2.069c1.065,4.054,4.708,6.107,8.778,4.753c2.557,0.591,4.799-0.198,5.855-1.755
					c2.793,0.168,6.16-1.92,7.609-4.621c2.406-0.113,5.454-1.799,7.171-4.101c6.434,3.818,15.544-10.341,9.884-13.636
					C589.511,318.151,585.18,313.736,578.756,313.952z"/>
				<path style="fill:#8AA88F;" d="M560.206,339.312c-0.154,0.249-0.307,0.497-0.461,0.745c-0.483-0.537-1.427-0.553-1.732,0.204
					c-0.14,0.348-1.357,1.861-1.893,0.673c-0.253-0.56-1.14-0.661-1.384-0.024c-0.599,0.326-1.198,0.653-1.797,0.98
					c-0.229-0.026-0.336,0.298-0.114,0.395c0.791,0.346,1.537,0.32,2.243,0.007c0.871,1.286,2.833,0.84,4.035-0.269
					c1.633,0.732,3.486-0.934,3.266-2.941C562.214,337.651,560.221,337.95,560.206,339.312z"/>
				<path style="fill:#8AA88F;" d="M549.19,328.732c-1.01-0.372-2.079-0.245-2.875,0.53c-0.655,0.636-0.762,1.455-0.63,2.274
					c-1.279,1.041-0.466,3.426,1.08,4.184c0.693,0.34,1.284-0.681,0.685-1.147c-0.036-0.028-1.251-1.514-0.539-1.56
					c0.607-0.039,1.064-0.765,0.803-1.326c-0.121-0.259-0.44-1.848,0.453-1.244C549.417,331.289,550.515,329.22,549.19,328.732z"/>
				<path style="fill:#8AA88F;" d="M567.043,323.968c-0.019,0.3,0.001,0.597,0.06,0.888c0.11,0.22,0.05,0.288-0.179,0.202
					c-0.093,0.074-0.466,0.045-0.613,0.119c-0.485,0.244-1.37,2.133-2.124,0.737c-0.328-0.606-1.222-0.743-1.538-0.026
					c-0.586,0.094-1.172,0.189-1.758,0.283c-0.383-0.439-1.294-0.047-0.969,0.541c0.822,1.49,2.35,1.684,3.45,0.811
					c1.039,0.934,2.668,1.067,3.67-0.236c0.022-0.027,0.109-0.14,0.189-0.257c0.305,0.002,0.672-0.124,0.889-0.273
					c0.938-0.642,1.116-1.997,1.129-3.024C569.266,322.335,566.896,322.516,567.043,323.968z"/>
				<path style="fill:#8AA88F;" d="M580.417,318.185c-0.314-0.157-0.708-0.147-1.05-0.205c-0.233-0.495-0.505-0.874-1.168-1.047
					c-0.983-0.257-1.853,0.38-2.561,0.977c-0.759,0.64,0.15,1.876,0.934,1.244c0.167-0.237,0.386-0.354,0.659-0.352
					c0.255-0.139,0.37-0.064,0.346,0.222c0.179,0.189,0.18,0.459,0.403,0.661c0.112,0.102,0.827,0.369,1.12,0.479
					c-0.953,1.165,1.033,2.892,1.951,1.526c0.559-0.833,0.826-1.75,0.28-2.668C581.119,318.666,580.786,318.37,580.417,318.185z"/>
				<path style="fill:#8AA88F;" d="M580.051,327.227c-0.802-1.026-2.185-0.086-1.883,1.053c0.005,0.017,0.006,0.034,0.011,0.05
					c-0.068-0.024-0.142,0.002-0.208-0.032c-0.532-0.191-1.123-0.001-1.366,0.538c-0.404,0.898-1.069,1.413-2.003,1.688
					c-0.894,0.263-0.526,1.75,0.392,1.596c1.169-0.196,2.159-0.735,2.901-1.602c0.816,0.277,1.748,0.355,2.355-0.327
					C580.978,329.372,580.651,327.994,580.051,327.227z"/>
			</g>
			<path style="fill:#A1C4A7;" d="M564.31,349.039c-6.488-1.115-13.124-0.011-19.639,0.935c-1.652,0.24-3.371,0.465-4.962-0.038
				c-1.647-0.52-2.956-1.757-4.156-2.997c-2.441-2.522-4.698-5.222-6.746-8.073c-0.644,3.765-0.646,7.64-0.005,11.406
				c0.477,2.802,1.322,5.574,2.813,7.994c2.504,4.065,6.765,6.916,11.394,8.085c4.629,1.17,9.588,0.729,14.098-0.839
				c3.905-1.358,7.626-3.562,11.755-3.768c3.57-0.177,12.69,0.841,8.358-5.663C574.556,352.083,568.829,349.816,564.31,349.039z"/>
			<path style="fill:#A1C4A7;" d="M581.289,346.125c2.536-1.468,5.297-2.512,7.853-3.944c5.557-3.111,10.055-8.077,12.603-13.913
				c1.238-2.835,2.151-6.036,4.595-7.932c1.594,2.962,3.206,5.972,3.932,9.257c0.725,3.284,0.462,6.937-1.469,9.692
				c-1.614,2.303-4.174,3.723-6.644,5.066c-7.603,4.132-15.211,9.207-23.168,12.589
				C570.853,360.397,576.603,347.971,581.289,346.125z"/>
		</g>
	</g>
	<g>
		<path style="fill:#A5CCB8;" d="M649.813,478.498c6.86,6.073,15.826-1.06,18.451-7.968c10.313-27.135,20.699-54.557,24.267-83.513
			c0.683-5.544,0.806-11.969-3.456-16.041c-15.225-14.547-30.815,13.243-33.406,23.261c-5.295,20.475-6.145,41.906-7.573,63.036
			c-0.339,5.025-3.715,14.538,0.047,19.422C648.682,477.393,649.24,477.992,649.813,478.498z"/>
		<g>
			<path style="fill:#D9BEA6;" d="M528.302,542.651c4.562,3.603,17.959,2.212,17.669-3.584c0.094,1.875,0.787,4.348,2.664,4.296
				c1.171-0.033,1.991-1.12,2.675-2.069c2.931-4.07,6.689-7.542,10.977-10.143c0.392-0.238,0.784-0.484,1.191-0.703
				c11.608-6.253,22.771-13.289,34.322-19.643c11.564-6.361,23.412-11.329,34.561-18.414c3.252-2.066,6.504-4.132,9.733-6.233
				c3.367-2.19,6.709-4.417,10.028-6.681c3.905-2.665,10.826-6.598,13.026-11.039c2.312-4.668-0.153-12.417-4.851-14.621
				c-7.364-3.455-14.93,4.65-20.566,8.22c-7.794,4.938-15.592,9.868-23.388,14.802c-10.22,3.204-21.399,13.544-30.498,19.304
				c-9.766,6.181-18.936,11.604-27.632,19.201c-4.458,3.895-8.968,7.826-14.196,10.602c-3.767,2-7.896,3.394-11.284,5.985
				C525.96,537.11,525.769,540.651,528.302,542.651z"/>
			<path style="fill:#A5CCB8;" d="M667.669,468.649c1.49-1.873,2.922-3.918,3.315-6.279c0.978-5.86-5.15-10.952-11.086-11.187
				c-5.937-0.236-11.438,2.862-16.537,5.911c-32.428,19.387-63.649,40.794-93.422,64.054c2.787,4.878,6.376,9.296,10.58,13.022
				c23.771-9.083,45.791-22.129,67.678-35.111C642.568,490.536,657.272,481.726,667.669,468.649z"/>
		</g>
	</g>
	<g>
		<g>
			<g>
				<g>
					<path style="fill:#EADDD0;" d="M471.545,456.584l70.631-19.426c-1.113-5.042-2.178-9.86-3.292-14.902
						c-23.964,3.45-48.091,6.106-72.241,8.438C468.668,439.335,470.327,448.074,471.545,456.584z"/>
				</g>
			</g>
		</g>
		<path style="fill:#B3953A;" d="M497.933,422.744c-2.772,0.223-5.536,0.559-8.281,1.003c-1.337,0.217-2.67,0.46-3.999,0.728
			c-0.485,0.099-1.256,0.096-1.476,0.51c-0.115,0.216,0.044,0.879,0.19,1.437c-11.853,0.854-22.492-2.699-30.803-9.954
			c-17.879-15.606-28.434-35.85-41.506-54.464c-14.434-20.553-35.699-6.572-31.796,13.096c6.258,31.538,28.437,60.603,60.064,78.712
			c4.764,2.728,9.931,5.277,15.691,5.84c5.939,0.581,11.858-1.005,17.549-2.571c5.125-1.41,10.251-2.819,15.376-4.229
			c0.03,0.173,0.06,0.347,0.089,0.521c0.114,0.668,0.231,1.344,0.502,1.965c3.475-1.278,7.084-2.189,10.748-2.711
			c0.677-0.096,1.468-0.259,1.751-0.884c0.129-0.288,0.118-0.618,0.102-0.934C501.655,441.354,499.792,432.029,497.933,422.744z"/>
		<path style="fill:#EADDD0;" d="M544.214,421.181c1.089-0.229,2.201-0.473,3.15-1.056c0.801-0.491,1.446-1.2,2.208-1.751
			c3.011-2.179,7.109-1.541,10.811-1.266c3.443,0.256,6.907,0.112,10.348,0.391c3.441,0.279,6.931,1.013,9.852,2.861
			c0.412,0.26,0.82,0.551,1.091,0.957c0.343,0.512,0.432,1.158,0.391,1.773c-0.125,1.851-1.352,3.487-2.873,4.542
			c-1.521,1.055-3.319,1.618-5.093,2.138c-9.23,2.707-18.659,4.66-28.076,6.611c-5.898,1.221-11.795,2.443-17.693,3.664
			c-0.476,0.099-1.001,0.19-1.425-0.049c-0.371-0.21-0.571-0.623-0.742-1.014c-1.024-2.341-1.808-4.78-2.589-7.214
			c-0.52-1.618-1.29-3.669-0.867-5.392c0.295-1.2,1.311-1.54,2.414-1.748c4.08-0.769,8.204-1.318,12.287-2.089
			C539.682,422.11,541.95,421.657,544.214,421.181z"/>
	</g>
	<defs>
		<filter id="Adobe_OpacityMaskFilter" filterUnits="userSpaceOnUse" x="675.479" y="926.867" width="229.093" height="27.062">
			<feFlood  style="flood-color:white;flood-opacity:1" result="back"/>
			<feBlend  in="SourceGraphic" in2="back" mode="normal"/>
		</filter>
	</defs>
	<mask maskUnits="userSpaceOnUse" x="675.479" y="926.867" width="229.093" height="27.062" id="SVGID_1_">
		<g style="filter:url(#Adobe_OpacityMaskFilter);">
			<defs>
				
					<filter id="Adobe_OpacityMaskFilter_00000012450713905507548630000012486458496810217620_" filterUnits="userSpaceOnUse" x="675.479" y="926.867" width="229.093" height="27.062">
					<feFlood  style="flood-color:white;flood-opacity:1" result="back"/>
					<feBlend  in="SourceGraphic" in2="back" mode="normal"/>
				</filter>
			</defs>
			<mask maskUnits="userSpaceOnUse" x="675.479" y="926.867" width="229.093" height="27.062" id="SVGID_1_">
				<g style="filter:url(#Adobe_OpacityMaskFilter_00000012450713905507548630000012486458496810217620_);">
				</g>
			</mask>
			
				<linearGradient id="SVGID_00000023995319374759446900000002856554961557200045_" gradientUnits="userSpaceOnUse" x1="-8263.1855" y1="694.3451" x2="-8033.9409" y2="694.3451" gradientTransform="matrix(0.9996 -0.0284 0.0284 0.9996 8915.5977 15.563)">
				<stop  offset="0" style="stop-color:#FFFFFF"/>
				<stop  offset="1" style="stop-color:#000000"/>
			</linearGradient>
			<path style="mask:url(#SVGID_1_);fill:url(#SVGID_00000023995319374759446900000002856554961557200045_);" d="M900.487,942.997
				c4.394-2.832,5.63-6.39,1.784-10.855c-3.093-3.59-11.892-1.954-15.923-2.24c-18.87-1.339-37.755-2.489-56.674-2.866
				c-38.053-0.759-76.157,1.044-113.968,5.402c-5.612,0.647-46.298,2.665-39.454,16.193c3.48,6.878,19.611,2.994,25.587,3.105
				c13.064,0.243,26.128,0.485,39.191,0.728c26.13,0.485,52.259,0.97,78.392,1.456C825.234,954.027,884.299,953.433,900.487,942.997
				z"/>
		</g>
	</mask>
	
		<linearGradient id="SVGID_00000172434332640932441150000006106341192812609412_" gradientUnits="userSpaceOnUse" x1="-8263.1855" y1="694.3451" x2="-8033.9409" y2="694.3451" gradientTransform="matrix(0.9996 -0.0284 0.0284 0.9996 8915.5977 15.563)">
		<stop  offset="0" style="stop-color:#000000"/>
		<stop  offset="1" style="stop-color:#000000"/>
	</linearGradient>
	<path style="opacity:0.2;fill:url(#SVGID_00000172434332640932441150000006106341192812609412_);" d="M900.487,942.997
		c4.394-2.832,5.63-6.39,1.784-10.855c-3.093-3.59-11.892-1.954-15.923-2.24c-18.87-1.339-37.755-2.489-56.674-2.866
		c-38.053-0.759-76.157,1.044-113.968,5.402c-5.612,0.647-46.298,2.665-39.454,16.193c3.48,6.878,19.611,2.994,25.587,3.105
		c13.064,0.243,26.128,0.485,39.191,0.728c26.13,0.485,52.259,0.97,78.392,1.456C825.234,954.027,884.299,953.433,900.487,942.997z"
		/>
	<path style="fill:#333333;" d="M795.416,644.194c1.562-17.526,3.082-35.057,4.563-52.591c0.281-3.323,0.502-6.918-1.159-9.745
		c-1.315-2.238-3.591-3.592-5.801-4.782c-28.795-15.497-63.223-18.642-94.066-8.593c-3.404,1.109-6.938,2.494-9.232,5.4
		c-3.342,4.232-3.136,10.379-2.751,15.9c4.179,59.944,10.36,120.263,10.36,180.511c0.78,17.781,1.561,35.571,3.199,53.284
		c1.916,20.713,5.006,41.303,9.246,61.618c6.399,1.056,12.909,1.337,19.367,0.836c5.202-59.888,8.154-119.997,8.874-180.136
		c1.136-2.908,2.392-5.537,3.78-7.767c2.236,3.909,4.716,10.539,7.226,17.518c0.93,21.199,1.86,42.397,2.789,63.596
		c0.78,17.781,1.561,35.57,3.2,53.284c1.916,20.713,5.006,41.302,9.245,61.618c6.399,1.056,12.91,1.337,19.367,0.836
		c4.482-51.589,7.302-103.344,8.458-155.14c0.55-24.628-0.852-49.519,1.373-73.913C794.116,658.684,794.769,651.439,795.416,644.194
		z"/>
	<path style="fill:#4A4E31;" d="M686.843,388.982c3.402-13.825,6.804-27.649,10.206-41.473c13.315,6.775,30.746,11.221,41.938,1.325
		c1.102,121.34,16.081,235.415,31.113,355.826c-24.842-7.392-51.365-9.072-76.941-4.874c-5.363-47.562-10.726-95.125-16.09-142.688
		c-3.515-31.174-7.034-62.588-4.413-93.85C674.765,438.106,680.815,413.482,686.843,388.982z"/>
	<g>
		<path style="fill:#AFD9C4;" d="M763.605,335.834c2.539-1.621,5.215-3.523,8.251-3.371c4.706,0.236,7.502,5.069,9.326,9.282
			c50.089,115.638,50.128,245.058,49.39,370.482c-29.092-2.056-58.523,0.45-86.802,7.393c-6.877-14.993-9.826-31.363-12.373-47.586
			c-17-108.254-18.724-218.755-5.107-327.459C739.267,345.943,752.701,342.795,763.605,335.834z"/>
		<path style="fill:#AFD9C4;" d="M679.672,374.763c4.507-10.237,9.535-20.31,12.704-31.007c4.424,4.136,10.832,6.186,16.925,5.415
			c-25.544,84.397-17.465,174.469-9.161,262.057c3.403,35.888,6.806,71.775,10.208,107.662c-18.599-2.423-37.637-1.643-55.959,2.292
			c8.357-31.034,13.891-63.203,10.965-95.153c-1.793-19.578-6.729-38.741-9.974-58.143
			C644.532,503.014,653.061,435.204,679.672,374.763z"/>
	</g>
	<g>
		<path style="fill:#97BAA8;" d="M815.306,606.662c-26.135,8.21-52.55,10.716-79.823,10.051c-1.599-0.039-1.516,2.256,0,2.427
			c27.017,3.051,54.966-0.853,80.797-8.945C818.527,609.491,817.566,605.952,815.306,606.662z"/>
		<path style="fill:#97BAA8;" d="M747.225,630.344c-0.298-1.507-2.447-0.826-2.251,0.621c2.218,16.379,4.141,32.708,5.797,49.15
			c0.19,1.891,3.129,1.95,2.999,0C752.666,663.505,750.455,646.676,747.225,630.344z"/>
		<path style="fill:#97BAA8;" d="M766.075,631.966c-0.106-1.373-2.175-1.411-2.164,0c0.115,15.584,0.85,31.277,1.738,46.834
			c0.096,1.69,2.691,1.714,2.644,0C767.866,663.216,767.274,647.511,766.075,631.966z"/>
		<path style="fill:#97BAA8;" d="M785.166,632.002c-0.141-1.298-2.178-1.328-2.056,0c1.437,15.571,1.813,31.194,1.098,46.814
			c-0.076,1.644,2.486,1.64,2.551,0C787.382,663.158,786.862,647.581,785.166,632.002z"/>
		<path style="fill:#97BAA8;" d="M801.18,633.671c-0.334-1.416-2.443-0.809-2.162,0.596c2.704,13.496,3.444,26.865,2.834,40.586
			c-0.081,1.816,2.662,1.778,2.798,0C805.712,661.038,804.351,647.135,801.18,633.671z"/>
		<path style="fill:#97BAA8;" d="M818.797,630.028c-0.135-1.388-2.298-1.423-2.195,0c1.123,15.459,0.885,30.741-0.267,46.187
			c-0.122,1.636,2.354,1.588,2.52,0C820.456,660.89,820.288,645.353,818.797,630.028z"/>
		<path style="fill:#97BAA8;" d="M817.887,696.299c-21.98,2.273-43.831,3.561-65.939,2.805c-1.331-0.045-1.316,1.983,0,2.056
			c22.065,1.23,44.385,0.831,66.302-2.173C819.774,698.778,819.417,696.141,817.887,696.299z"/>
		<path style="fill:#97BAA8;" d="M693.916,619.56c-7.012-0.05-14.118,0.507-21.109,1.03c-1.328,0.1-1.361,2.067,0,2.087
			c7.002,0.103,14.12,0.229,21.109-0.241C695.75,622.312,695.787,619.573,693.916,619.56z"/>
		<path style="fill:#97BAA8;" d="M692.557,627.349c0.044-1.35-2.015-1.335-2.087,0c-0.646,12.109-0.304,24.23,1.221,36.265
			c0.19,1.494,2.551,1.534,2.381,0C692.735,651.53,692.167,639.505,692.557,627.349z"/>
		<path style="fill:#97BAA8;" d="M679.602,632.008c-0.155-1.333-2.252-1.367-2.118,0c1.109,11.412,1.64,22.826,2.125,34.277
			c0.069,1.626,2.564,1.64,2.535,0C681.946,654.827,680.921,643.385,679.602,632.008z"/>
		<path style="fill:#97BAA8;" d="M697.859,681.467c-7.831-0.777-15.84-0.846-23.707-0.971c-1.41-0.023-1.352,2.015,0,2.149
			c7.844,0.774,15.825,1.624,23.707,1.745C699.776,684.418,699.696,681.649,697.859,681.467z"/>
	</g>
	<g>
		<path style="fill:#D9BEA6;" d="M717.883,244.656c-3.287,1.207-5.861,3.797-8.124,6.469c-10.352,12.217-16.555,27.887-17.37,43.88
			c-0.195,3.836-0.078,7.759,1.168,11.391c1.341,3.908,3.912,7.267,6.641,10.368c6.379,7.25,13.868,13.523,22.124,18.531
			c1.424,0.864,2.927,1.71,4.585,1.864c2.038,0.19,4.008-0.686,5.853-1.573c5.065-2.437,10.012-5.122,14.815-8.041
			c4.35-2.643,8.709-5.606,11.443-9.9c3.281-5.155,3.803-11.543,4.085-17.647c0.209-4.508,0.337-9.02,0.384-13.533
			c0.034-3.256,0.024-6.537-0.6-9.733c-1.31-6.71-5.29-12.685-10.275-17.364c-4.984-4.678-10.951-8.175-17.016-11.329
			C730.097,245.182,723.7,242.519,717.883,244.656z"/>
		<g>
			<path style="fill:#BA8775;" d="M700.482,269.253c-1.541,1.201-2.776,2.786-3.469,5.359c-0.842,3.128-0.672,6.429-0.439,9.66
				c0.626,8.698,1.695,17.497,5.013,25.561c1.453,3.532,5.297,9.76,3.994,13.756c-1.544,4.736-7.113-1.771-9.445-4.178
				c-6.639-6.854-10.943-15.793-13.357-24.952c-2.744-10.409-3.296-21.484-0.836-31.964c2.46-10.481,8.023-20.328,16.241-27.282
				c11.03-9.333,26.491-12.905,40.671-10.127c14.18,2.778,26.913,11.641,35.124,23.531c2.856,4.136,5.219,8.686,6.293,13.597
				c0.929,4.241,0.875,8.647,0.378,12.961c-2.072,18.022-12.15,34.975-26.993,45.405c2.309-13.092,2.118-26.619-0.561-39.64
				c-0.355-1.727-0.778-3.501-1.82-4.924c-1.001-1.368-2.487-2.292-3.971-3.113c-4.815-2.664-10.016-4.606-14.709-7.479
				c-4.694-2.873-8.992-6.918-10.592-12.183c-4.091,4.543-8.999,8.33-14.084,11.694
				C705.273,266.684,702.591,267.609,700.482,269.253z"/>
			<path style="fill:#BA8775;" d="M783.102,224.364c-1.639,10.291-9.137,19.441-18.905,23.072
				c-9.769,3.63-21.422,1.598-29.385-5.126c-3.441-12.721-6.288-28.062,2.779-37.625c5.459-5.758,13.767-7.585,21.549-9.133
				c4.451-0.885,9.262-1.731,13.369,0.199c3.686,1.731,6.076,5.397,7.725,9.122C782.927,210.962,784.15,217.788,783.102,224.364z"/>
		</g>
	</g>
	<g>
		<path style="fill:#736357;" d="M733.341,879.292c-0.166-0.372-0.386-0.712-0.683-1c-0.672-0.653-1.63-0.918-2.558-1.042
			c-5.912-0.783-11.401,3.178-17.324,3.878c-5.438,0.643-11.304-0.05-8.932,7.115c3.849,11.627,5.731,23.893,5.601,36.14
			c0.073-0.233,0.167-0.46,0.294-0.67c0.266,0.472,0.416,0.961,0.483,1.456c-0.256,0.214-0.527,0.409-0.786,0.62
			c0.011-0.469,0.004-0.938,0.009-1.407c-0.15,0.477-0.178,0.983-0.097,1.476c-4.761,3.856-9.958,7.174-15.49,9.807
			c-1.736,0.826-3.568,1.636-4.798,3.116c-1.229,1.479-1.619,3.864-0.303,5.266c1.151,1.225,3.056,1.25,4.735,1.167
			c12.537-0.622,46.493,1.411,43.593-17.174c-0.5-3.203-2.024-6.143-2.981-9.241c-2.111-6.834-0.366-12.258,0.469-18.97
			c0.736-5.917-0.024-12.131-0.689-18.106C733.792,880.903,733.673,880.036,733.341,879.292z"/>
	</g>
	<g>
		<path style="fill:#736357;" d="M789.41,878.633c-0.166-0.372-0.386-0.712-0.683-1c-0.672-0.653-1.63-0.918-2.558-1.042
			c-5.911-0.783-11.401,3.178-17.323,3.878c-5.439,0.643-11.305-0.05-8.933,7.115c3.849,11.627,5.732,23.893,5.601,36.14
			c0.073-0.233,0.167-0.46,0.294-0.67c0.267,0.473,0.416,0.961,0.484,1.456c-0.257,0.214-0.528,0.409-0.786,0.62
			c0.01-0.469,0.003-0.938,0.008-1.407c-0.15,0.477-0.177,0.983-0.096,1.476c-4.761,3.856-9.958,7.174-15.491,9.807
			c-1.736,0.826-3.568,1.636-4.797,3.115c-1.23,1.479-1.62,3.864-0.304,5.267c1.151,1.225,3.056,1.25,4.735,1.167
			c12.538-0.622,46.494,1.411,43.593-17.174c-0.5-3.203-2.024-6.143-2.981-9.24c-2.111-6.835-0.366-12.259,0.469-18.971
			c0.736-5.917-0.023-12.131-0.689-18.106C789.862,880.243,789.744,879.376,789.41,878.633z"/>
	</g>
	<path style="fill:#CBB190;" d="M486.093,544.092c0.693,3.677,1.491,7.401,3.29,10.682c2.121,3.87,5.553,6.924,9.422,9.047
		c9.166,5.03,20.181,4.893,30.633,4.627c9.269-0.236,18.538-0.471,27.807-0.707c15.786-0.401,31.66-0.812,47.157-3.843
		c6.021-1.177,12.27-2.915,16.622-7.239c3.084-3.065,4.928-7.175,6.12-11.356c2.045-7.177,2.342-14.723,2.444-22.185
		c0.334-24.274-1.248-48.528-2.829-72.753c-1.814-27.792-3.627-55.584-5.441-83.376c-0.127-1.944-0.292-4-1.42-5.589
		c-1.966-2.769-5.917-3.004-9.313-2.961c-33.72,0.423-67.428,1.897-101.057,4.419c-7.625,0.572-15.275,1.202-22.74,2.854
		c-8.164,1.807-21.887,7.395-20.949,17.7c0.467,5.127,3.747,11.113,4.975,16.239c1.547,6.461,2.785,12.994,3.797,19.559
		c4.089,26.518,4.441,53.407,6.245,80.131C481.867,514.33,483.308,529.317,486.093,544.092z"/>
	<defs>
		
			<filter id="Adobe_OpacityMaskFilter_00000083091323206091429940000001074263711792184998_" filterUnits="userSpaceOnUse" x="240.386" y="935.327" width="251.785" height="17.985">
			<feFlood  style="flood-color:white;flood-opacity:1" result="back"/>
			<feBlend  in="SourceGraphic" in2="back" mode="normal"/>
		</filter>
	</defs>
	
		<mask maskUnits="userSpaceOnUse" x="240.386" y="935.327" width="251.785" height="17.985" id="SVGID_00000026129852611684020880000009571969690478437022_">
		<g style="filter:url(#Adobe_OpacityMaskFilter_00000083091323206091429940000001074263711792184998_);">
			<defs>
				
					<filter id="Adobe_OpacityMaskFilter_00000158006342358382186410000014099696387852686502_" filterUnits="userSpaceOnUse" x="240.386" y="935.327" width="251.785" height="17.985">
					<feFlood  style="flood-color:white;flood-opacity:1" result="back"/>
					<feBlend  in="SourceGraphic" in2="back" mode="normal"/>
				</filter>
			</defs>
			
				<mask maskUnits="userSpaceOnUse" x="240.386" y="935.327" width="251.785" height="17.985" id="SVGID_00000026129852611684020880000009571969690478437022_">
				<g style="filter:url(#Adobe_OpacityMaskFilter_00000158006342358382186410000014099696387852686502_);">
				</g>
			</mask>
			
				<linearGradient id="SVGID_00000148634168735133350960000007639143566985260476_" gradientUnits="userSpaceOnUse" x1="-6831.9429" y1="13810.0127" x2="-6589.4902" y2="13810.0127" gradientTransform="matrix(1.0383 0.012 -0.0119 1.0344 7498.3413 -13260.1113)">
				<stop  offset="0" style="stop-color:#FFFFFF"/>
				<stop  offset="1" style="stop-color:#000000"/>
			</linearGradient>
			
				<path style="mask:url(#SVGID_00000026129852611684020880000009571969690478437022_);fill:url(#SVGID_00000148634168735133350960000007639143566985260476_);" d="
				M465.556,951.014c5.333-0.154,10.736-0.315,15.807-1.279c6.424-1.221,12.806-5.051,10.218-8.801
				c-2.182-3.163-9.015-3.908-14.716-4.117c-11.171-0.41-22.357-0.555-33.54-0.701c-58.399-0.761-116.875-1.521-175.126,0.544
				c-7.833,0.278-36.96,2.736-24.943,10.837c9.475,6.388,36.339,4.626,49.161,5.029c36.63,1.151,73.311,0.897,109.916,0.139
				C423.416,952.229,444.487,951.622,465.556,951.014z"/>
		</g>
	</mask>
	
		<linearGradient id="SVGID_00000075852958419397328980000014116462817509440668_" gradientUnits="userSpaceOnUse" x1="-6831.9429" y1="13810.0127" x2="-6589.4902" y2="13810.0127" gradientTransform="matrix(1.0383 0.012 -0.0119 1.0344 7498.3413 -13260.1113)">
		<stop  offset="0" style="stop-color:#000000"/>
		<stop  offset="1" style="stop-color:#000000"/>
	</linearGradient>
	<path style="opacity:0.2;fill:url(#SVGID_00000075852958419397328980000014116462817509440668_);" d="M465.556,951.014
		c5.333-0.154,10.736-0.315,15.807-1.279c6.424-1.221,12.806-5.051,10.218-8.801c-2.182-3.163-9.015-3.908-14.716-4.117
		c-11.171-0.41-22.357-0.555-33.54-0.701c-58.399-0.761-116.875-1.521-175.126,0.544c-7.833,0.278-36.96,2.736-24.943,10.837
		c9.475,6.388,36.339,4.626,49.161,5.029c36.63,1.151,73.311,0.897,109.916,0.139C423.416,952.229,444.487,951.622,465.556,951.014z
		"/>
	<g>
		<path style="fill:#736357;" d="M283.097,924.977c-7.405,1.634-15.348,0.688-22.166-2.639
			c7.676-25.992,21.945-87.41,29.621-113.402c2.428-8.22,4.866-16.49,5.854-25.005c1.215-10.469,0.213-21.055-0.79-31.547
			c-3.889-40.683-11.261-100.911-15.15-141.594c-0.326-3.411-0.641-6.936,0.413-10.196c3.026-9.364,14.9-11.733,24.676-12.531
			c2.143-0.175,4.489-0.297,6.237,0.959c1.998,1.436,7.724,0.289,9.956,1.321c10.831,5.008,8.352,4.95,13.052,36.836
			c1.653,11.212,7.703,103.559,6.837,114.859c-1.532,19.974-2.299,43.529-10.566,61.763
			C318.343,831.876,295.028,892.223,283.097,924.977z"/>
	</g>
	<g>
		<path style="fill:#736357;" d="M366.191,626.339c13.652-0.409,12.722,0.429,26.375,0.021c4.569,1.036,11.898-1.521,11.926,0.695
			c0.884,69.877-4.639,139.856-16.453,208.452c-5.092,29.561-11.375,59.141-11.478,89.258c-5.602-0.011-11.204-0.022-16.806-0.033
			c-1.903-94.208-3.806-188.416-5.709-282.623c-0.096-4.765,0.075-10.23,3.328-13.262
			C359.759,626.625,363.101,626.43,366.191,626.339z"/>
	</g>
	<g>
		<path style="fill:#BE9F3E;" d="M298.855,362.645c0.52-3.931,5.943-17.261,9.752-19.454c4.863-2.799,6.067-6.398,14.332-6.583
			c8.441-0.189,16.625,0.643,23.748,1.816c6.069,0.66,41.254,0.381,45.538-3.189c3.078,9.262,7.961,17.984,12.338,26.847
			c25.843,52.333,34.127,111.046,23.592,167.216c-3.151,16.799-7.944,33.392-9.686,50.343c-2.842,27.663,2.532,55.516,10.648,82.387
			l-109.371-6.607c-22.812,0.563-41.679,1.682-54.847,2.511C264.182,549.334,282.614,485.525,298.855,362.645z"/>
	</g>
	<g>
		<path style="fill:#EADDD0;" d="M345.3,324.313c-2.877-5.024-4.52-11.476-4.427-19.02c0.172-13.924,1.894-28.188,8.199-40.331
			c7.262-13.984,24.095-26.977,40.218-21.689c18.886,6.193,15.745,32.168,13.176,49.383c-2.042,13.681-7.741,27.222-18.09,35.635
			C368.92,340.857,352.856,337.508,345.3,324.313z"/>
	</g>
	<path style="fill:#D3E4EA;" d="M425.549,932.243c-0.231-2.038-1.084-3.968-2.211-5.68c-3.691-5.606-8.367-6.036-15.039-5.469
		c-5.646,0.48-10.426,1.319-13.4,5.288c-2.935-0.386-6.194-0.118-8.576-1.618c-1.248-0.785-3.312-1.953-4.141-3.174
		c-0.995-1.465-1.283-3.285-1.546-5.039c-0.708-4.716-1.415-9.432-2.123-14.148c-3.63-0.614-7.298-0.995-10.977-1.144
		c-2.034-0.081-8.869-1.092-10.427,0.283c-1.635,1.444-0.882,8.445-0.849,10.502c0.056,3.527,0.31,7.047,0.41,10.573
		c0.148,5.181-0.033,10.364-0.266,15.543c-0.084,0.215-0.159,0.442-0.209,0.695c-0.168,0.842-0.115,1.538,0.079,2.129
		c-0.007,0.149-0.013,0.297-0.02,0.446c0.082,0.028,0.165,0.048,0.247,0.076c1.35,2.458,5.794,2.572,8.204,2.718
		c12.405,0.752,24.808,1.504,37.212,2.255c5.792,0.351,11.802,0.669,17.199-1.468C424.512,942.877,426.203,938.03,425.549,932.243z"
		/>
	<path style="fill:#D3E4EA;" d="M322.677,928.219c-1.833-1.579-4.291-1.444-6.706-1.489c-2.156-0.041-6.681-0.977-8.605,0
		c-3.211,1.628-5.253,1.539-6.974,2.985c-2.089-0.595-4.178-1.19-6.267-1.785c-2.335-0.666-4.919-1.526-6.04-3.687
		c-0.841-1.621-0.625-3.567-0.387-5.38c0.306-2.339,0.613-4.679,0.919-7.018c-0.034,0.257-21.523-4.496-23.495-4.139
		c-2.902,0.526-2.981,5.791-3.674,8.235c-1.068,3.772-2.321,7.5-3.985,11.053c-1.283,2.739-2.812,5.382-3.701,8.274
		c-0.187,0.608-0.327,1.327,0.058,1.831c0.237,0.31,0.616,0.455,0.998,0.563c0.174,0.423,0.422,0.832,0.693,1.175
		c4.722,5.96,13.157,7.066,20.716,7.72c12.809,1.109,25.62,2.219,38.429,3.328c4.372,0.379,6.81,1.21,9.939-1.879
		c1.79-1.767,2.608-4.332,2.793-6.846C327.847,934.938,327.392,932.28,322.677,928.219z"/>
	<g>
		<path style="fill:#D9BEA6;" d="M613.777,516.681c-1.769,0.637-3.574,1.293-5.041,2.468c-1.468,1.175-2.563,2.984-2.388,4.856
			c0.176,1.872,1.954,3.596,3.806,3.276c-0.136,0.523-0.021,1.105,0.304,1.537c3.834,1.066,7.656-1.346,11.154-3.244
			c2.703-1.467,5.543-2.682,8.471-3.623c2.474-0.795,5.266-1.586,6.564-3.837c0.945-1.641,0.833-3.711,0.236-5.508
			c-0.598-1.798-1.628-3.412-2.491-5.098c-4.604,0.871-9.207,1.743-13.81,2.614c-0.75,0.141-1.532,0.298-2.129,0.772
			c-0.597,0.475-0.932,1.374-0.532,2.023c1,0.102,1.956,0.583,2.632,1.327C618.294,515.056,616.036,515.869,613.777,516.681z"/>
		<g>
			<path style="fill:#A5CCB8;" d="M783.892,389.952c-4.633-20.317-30.813-24.517-35.831,1.126
				c-4.544,23.225-5.999,46.923-16.396,69.342c-4.99,10.76-13.986,18.871-26.213,23c-24.359,8.225-48.892,15.868-73.558,22.917
				c1.08,5.257,2.16,10.514,3.24,15.77c31.576-4.881,63.152-9.763,94.729-14.644c6.083-0.94,12.391-1.958,17.799-5.039
				c5.244-2.988,9.082-7.607,12.459-12.224C782.543,459.548,791.32,422.531,783.892,389.952z"/>
		</g>
	</g>
	<g>
		<path style="fill:#84876D;" d="M543.485,483.958c-0.734-0.321-1.566-0.309-2.367-0.288c-4.381,0.118-8.759,0.348-13.128,0.69
			c-0.406,0.032-0.833,0.061-1.204-0.106c-1.167-0.525-0.822-2.255-0.289-3.418c1.256-2.736,2.511-5.472,3.766-8.208
			c0.269-0.586,0.635-1.249,1.273-1.342c0.991-0.146,1.596,1.167,2.569,1.404c0.879,0.214,1.748-0.577,1.959-1.456
			c0.211-0.88-0.049-1.797-0.306-2.664c-1.412-4.751-2.823-9.503-4.235-14.254c-0.124-0.419-0.268-0.867-0.614-1.133
			c-0.508-0.39-1.232-0.242-1.849-0.069c-5.645,1.585-11.141,3.699-16.392,6.307c-0.991,0.492-2.143,1.558-1.532,2.48
			c1.281,1.934,4.153,1.31,3.667,4.298c-0.431,2.648-2.859,5.579-3.941,8.051c-1.407,3.216-2.359,6.779-1.714,10.23
			c0.77,4.114,3.662,7.458,6.445,10.585c1.267,1.423,2.596,2.893,4.358,3.618c1.537,0.633,3.251,0.635,4.914,0.601
			c6.324-0.13,12.641-0.644,18.903-1.539c0.392-0.056,0.809-0.126,1.098-0.396c0.316-0.295,0.401-0.756,0.462-1.183
			c0.338-2.353,0.482-4.733,0.431-7.11C545.716,487.088,545.29,484.748,543.485,483.958z"/>
		<path style="fill:#84876D;" d="M551.054,433.579c0.374,0.209,0.637,0.567,0.885,0.917c1.44,2.024,2.784,4.115,4.029,6.265
			c0.763,1.317,1.409,3.191,0.253,4.181c-0.918,0.787-2.697,0.67-2.957,1.851c-0.246,1.114,1.214,1.751,2.339,1.935
			c5.663,0.926,11.326,1.851,16.989,2.777c0.372,0.061,0.764,0.119,1.115-0.015c0.661-0.253,0.895-1.052,1.04-1.746
			c1.16-5.563,2.118-11.167,2.872-16.799c0.035-0.266,0.07-0.539,0.002-0.799c-0.173-0.657-0.973-0.983-1.641-0.858
			c-0.668,0.125-1.222,0.578-1.725,1.035c-0.481,0.436-1.038,0.923-1.682,0.847c-0.583-0.069-1.001-0.577-1.349-1.049
			c-4.051-5.49-8.018-11.889-14.569-13.793c-3.424-0.995-7.079-0.577-10.619-0.15c-2.429,0.292-4.987,0.636-6.929,2.124
			c-0.912,0.699-1.633,1.614-2.319,2.536c-2.414,3.247-4.519,6.723-6.282,10.365c-0.89,1.84-4.355,8.429-3.331,10.256
			c0.392,0.7,1.178,1.063,1.913,1.383c2.359,1.025,4.717,2.05,7.076,3.075c0.945,0.41,2.001,0.827,2.975,0.49
			c0.805-0.278,1.354-1.009,1.841-1.708c2.399-3.435,4.567-7.032,6.485-10.757c0.368-0.716,0.743-1.456,1.355-1.979
			C549.431,433.438,550.351,433.185,551.054,433.579z"/>
		<path style="fill:#84876D;" d="M598.148,470.968c-0.417-2.213-2.617-3.526-4.266-5.06c-3.226-3-4.673-7.456-7.516-10.821
			c-0.951-1.126-2.277-2.198-3.736-1.982c-0.741,0.11-1.389,0.541-2.01,0.961c-1.73,1.171-3.46,2.343-5.19,3.514
			c-1.326,0.898-2.814,2.125-2.636,3.716c0.066,0.594,0.367,1.132,0.665,1.65c2.831,4.933,5.867,9.749,9.097,14.43
			c0.45,0.651-7.945,1.07-8.498,1.059c-1.005-0.02-3.674,0.642-4.474,0.31c-1.179-0.488-0.896-2.448-1.024-3.849
			c-0.031-0.341-0.068-0.699-0.26-0.983c-0.393-0.584-1.295-0.601-1.895-0.233c-0.6,0.367-0.974,1.002-1.343,1.601
			c-1.399,2.27-3.06,4.379-4.94,6.27c-1.489,1.499-3.137,2.889-4.222,4.702c-1.085,1.813-1.504,4.214-0.395,6.012
			c0.549,0.889,1.405,1.537,2.241,2.164c2.649,1.984,5.298,3.968,7.946,5.952c0.743,0.556,1.51,1.124,2.407,1.36
			c0.898,0.235,1.968,0.058,2.542-0.671c0.802-1.019,0.335-2.599,1.003-3.71c0.61-1.014,1.928-1.296,3.097-1.481
			c3.487-0.552,6.975-1.105,10.462-1.658c2.716-0.43,5.701-1.014,7.383-3.188c0.868-1.123,1.263-2.529,1.64-3.898
			c1.176-4.275,2.353-8.549,3.528-12.824C598.054,473.22,598.357,472.081,598.148,470.968z"/>
	</g>
	<g>
		<path style="fill:#EBEFEB;" d="M442.488,664.367c-3.569-22.571-1.972-45.799-1.636-68.782c0.23-15.806-0.146-31.625-1.124-47.39
			c-0.504-8.111-1.166-16.208-1.987-24.281c-0.403-3.96-0.844-7.915-1.323-11.862c-0.163-1.341-0.192-4.304-0.548-6.77
			c0.033-0.388,0.028-0.785,0.017-1.166c-0.917-30.389-6.874-62.174-14.415-91.576c-2.95-11.506-6.397-22.871-9.841-34.231
			c-4.22-13.918-8.44-27.837-12.66-41.755c-0.341-1.125-0.72-2.311-1.588-3.081c-1.099-0.974-2.685-1.038-4.138-1.052
			c-1.491-0.014-2.982-0.029-4.472-0.043c-1.21-0.012-2.659,0.112-3.242,1.2c-0.497,0.927-0.083,2.071,0.345,3.034
			c6.188,13.902,15.032,27.579,14.475,42.851c-0.08,2.197-0.381,4.452-1.448,6.357c-2.737,4.888-9.159,5.699-14.647,5.958
			c-3.816,0.18-8.028,0.23-10.957-2.285c-1.911-1.641-2.926-4.106-3.831-6.489c-3.756-9.885-6.808-20.052-9.123-30.392
			c-0.398-1.777-0.78-3.577-1.532-5.229c-0.54-1.186-1.262-2.276-1.838-3.444c-1.792-3.641-3.024-13.23-8.666-12.607
			c-7.438,0.821-1.059,12.258,0.185,15.726c5.072,14.154,9.509,28.548,13.291,43.121c2.108,8.123,4.013,16.301,5.712,24.524
			c1.202,5.817,2.304,11.686,2.522,17.628c0.673,18.378-7.266,36.246-18.622,50.476c-3.049,3.82-6.376,7.455-10.292,10.325
			c-6.759,4.952-14.96,7.412-22.012,11.914c-0.495,0.316-0.993,0.656-1.452,1.034c-0.195-0.057-0.4-0.068-0.576-0.02
			c-5.634,1.549-3.012,2.979-8.826,3.491c-4.26,0.376-21.824-1.411-26.278-2.952c0.076-0.551,0.055-1.116-0.097-1.684
			c-0.366-1.368-1.153-2.088-2.107-2.37c-0.411-3.327-1.129-6.596-2.067-9.84c-0.817-2.828-1.504-5.901-4.322-7.265
			c-3.054-1.48-12.94-2.764-12.504,3.148c0.212,2.876,3.847,5.1,5.729,6.742c3.016,2.63,5.986,5.211,8.085,8.624
			c-1.347,1.091-2.367,2.857-2.139,4.514c-0.003,0.026-0.009,0.049-0.012,0.076c-0.027,0.324-0.007,0.626,0.037,0.914
			c-4.555,3.109-7.697,7.327-8.399,13.697c-0.489,4.434,0.229,9.291,0.481,14.023c-0.014,1.07-0.04,2.139-0.084,3.207
			c-0.982,3.519-0.337,10.051-4.11,11.429c-0.872,0.318-1.106,1.176-0.762,1.876c-0.011,0.011-0.022,0.022-0.033,0.034
			c-0.203,0.188,0.073,0.57,0.298,0.395c0.01-0.009,0.019-0.017,0.03-0.026c0.051,0.054,0.096,0.111,0.157,0.159
			c1.885,1.49,6.257,3.747,8.32,1.357c2.302-2.667,2.079-10.119,2.082-13.474c0.006-6.027-1.661-11.901-1.665-17.911
			c-0.004-5.008,2.445-8.556,5.602-11.706c-0.49,14.747,2.699,30.339-2.378,44.553c-2.244,6.281-7.136,10.834-9.526,16.954
			c-2.114,5.415-1.84,11.339,0.334,16.67c0.347,0.85,1.421,1.192,2.137,0.888c0.863,0.828,2.645,0.479,2.594-1.071
			c-0.222-6.717,3.479-11.944,6.631-17.485c2.488-4.374,4.135-8.77,4.429-13.868c0.361-6.287-0.295-12.702-0.417-18.995
			c-0.125-6.478-0.137-12.963-0.075-19.442c0.028-2.938,0.246-6.14,0.383-9.403c0.635-0.417,1.248-0.941,1.778-1.539
			c4.496,2.238,21.913,5.245,26.551,5.785c4.759,0.555,2.389,0.985,7.595,0.421c-0.154,4.572,0.102,9.184,0.311,13.764
			c2.084,45.629-1.657,91.808,4.815,136.823c33.777,5.836,67.944,8.317,102.051,7.409c5.451-0.145,10.919-0.378,16.299-1.457
			c1.607-0.322,3.379-0.86,4.253-2.533C443.092,668.367,442.787,666.258,442.488,664.367z M274.443,499.378
			c-2.604-2.944-5.777-5.272-8.7-7.859c-0.436-0.385-0.751-0.621-0.96-0.824c0.293-1.262,0.804-2.031,1.441-2.431
			c2.072-0.227,5.623,3.262,6.044,3.891c0.738,1.103,1.312,2.331,1.848,3.546c0.66,1.499,1.268,3.029,1.847,4.571
			c0.014,0.117,0.031,0.236,0.043,0.353c0.03,0.275,0.046,0.551,0.069,0.827C275.563,500.735,275.026,500.038,274.443,499.378z"/>
	</g>
	<g>
		<path style="fill:#E4E8E4;" d="M435.853,653.773c-2.415,1.169-4.852,2.195-7.307,3.114c0.067-7.732,0.098-15.464,0.091-23.196
			c1.35-0.287,2.701-0.563,4.049-0.867c1.929-0.436,1.113-3.48-0.817-3.039c-1.079,0.246-2.161,0.472-3.241,0.709
			c-0.007-3.159-0.015-6.318-0.033-9.476c1.853-0.203,3.702-0.421,5.542-0.669c1.762-0.237,1.898-2.979,0-2.933
			c-1.856,0.046-3.711,0.115-5.568,0.186c-0.049-7.013-0.118-14.025-0.218-21.037c1.903-0.234,3.805-0.469,5.704-0.719
			c1.693-0.222,1.789-2.934,0-2.802c-1.919,0.143-3.836,0.3-5.754,0.449c-0.069-4.525-0.147-9.049-0.235-13.573
			c2.439-0.235,4.875-0.483,7.309-0.748c2.071-0.225,2.122-3.561,0-3.371c-2.46,0.222-4.92,0.441-7.379,0.659
			c-0.125-6.182-0.263-12.365-0.418-18.547c2.063,0.126,4.123,0.409,6.179,0.931c1.932,0.49,2.745-2.517,0.822-3.06
			c-2.35-0.665-4.713-0.999-7.081-1.116c-0.119-4.658-0.235-9.318-0.352-13.979c1.848-0.251,3.694-0.507,5.536-0.786
			c1.625-0.247,1.26-3.134-0.392-2.967c-1.743,0.177-3.485,0.35-5.226,0.523c-0.118-4.692-0.24-9.383-0.365-14.076
			c0.455-0.045,0.911-0.082,1.367-0.129c1.801-0.185,1.816-3.103,0-2.911c-0.482,0.051-0.963,0.095-1.444,0.145
			c-0.136-4.994-0.278-9.988-0.433-14.981c1.03,0.053,2.062,0.097,3.092,0.153c1.714,0.093,1.712-2.651,0-2.735
			c-1.06-0.053-2.119-0.088-3.178-0.137c-0.178-5.585-0.377-11.169-0.591-16.751c0.655-0.024,1.311-0.04,1.967-0.066
			c1.695-0.067,1.709-2.756,0-2.714c-0.691,0.017-1.382,0.043-2.074,0.063c-0.253-6.379-0.533-12.754-0.854-19.125
			c0.764-0.085,1.53-0.16,2.294-0.246c1.706-0.193,1.747-2.948,0-2.78c-0.815,0.078-1.629,0.167-2.444,0.248
			c-0.151-2.893-0.298-5.787-0.467-8.678c-0.715-12.254-1.759-24.668-4.19-36.749c1.441-0.203,1.4-2.536-0.156-2.54
			c-0.127,0-0.254,0.002-0.381,0.001c-0.996-4.555-2.205-9.057-3.681-13.48c0.544-0.013,0.747,0.004,1.292-0.008
			c1.769-0.036,0.103-2.822-1.672-2.792c-4.426,0.076-6.83,0.176-11.24,0.422c-0.035-0.274-0.067-0.549-0.103-0.822
			c-0.075-0.567-0.934-0.605-0.896,0c0.018,0.293,0.038,0.586,0.056,0.88c-11.35,0.665-22.652,1.9-33.894,3.802
			c-0.846,0.143-0.658,1.637,0.204,1.548c7.17-0.741,14.35-1.363,21.539-1.862c0.012,4.251,0.036,8.503,0.055,12.754
			c-5.036,0.161-10.066,0.366-15.09,0.613c-0.071-2.982-0.146-5.964-0.208-8.947c-0.013-0.633-0.961-0.636-0.96,0
			c0.004,3.001,0.016,6.001,0.021,9.002c-1.195,0.06-2.394,0.106-3.589,0.172c-0.778,0.042-0.787,1.225,0,1.247
			c1.196,0.035,2.396,0.049,3.593,0.079c0.011,6.6,0.03,13.199,0.046,19.799c-0.679,0.132-1.365,0.248-2.041,0.385
			c-0.666,0.136-0.523,1.277,0.161,1.226c0.628-0.047,1.255-0.101,1.883-0.149c0.012,4.72,0.018,9.44,0.033,14.159
			c-1.022,0.121-2.045,0.229-3.067,0.353c-0.517,0.062-0.547,0.876,0,0.854c1.023-0.043,2.046-0.101,3.069-0.147
			c0.017,5.044,0.043,10.088,0.064,15.132c-0.693,0.098-1.386,0.195-2.079,0.293c-0.754,0.106-0.584,1.452,0.182,1.376
			c0.634-0.063,1.269-0.122,1.903-0.185c0.023,5.495,0.05,10.99,0.077,16.485c-5.726,0.281-11.453,0.538-17.182,0.739
			c-0.589,0.02-0.591,0.958,0,0.941c5.728-0.167,11.458-0.276,17.187-0.362c0.025,4.954,0.04,9.908,0.069,14.862
			c-4.13,0.027-8.26,0.074-12.39,0.147c-0.017-4.53-0.033-9.06-0.049-13.59c-0.003-0.733-1.096-0.732-1.11,0
			c-0.089,4.537-0.179,9.074-0.268,13.611c-5.903,0.112-11.806,0.276-17.712,0.476c-0.076-3.246-0.16-6.491-0.227-9.738
			c-0.007-0.366-0.557-0.368-0.555,0c0.027,3.254,0.037,6.509,0.056,9.764c-2.082,0.072-4.163,0.135-6.245,0.218
			c-1.04,0.041-1.047,1.696,0,1.663c2.084-0.065,4.169-0.105,6.255-0.156c0.034,6.247,0.063,12.495,0.08,18.742
			c-4.639-0.245-9.274-0.565-13.902-0.954c-0.595-5.687-1.526-11.348-2.931-16.971c-0.172-0.684-1.181-0.395-1.029,0.291
			c1.215,5.481,1.994,11.001,2.463,16.545c-1.447-0.127-2.894-0.25-4.34-0.391c-0.738-0.072-0.732,1.109,0,1.182
			c1.478,0.148,2.956,0.282,4.435,0.419c0.49,6.394,0.58,12.819,0.453,19.257c-1.609-0.043-3.217-0.085-4.829-0.146
			c-0.662-0.025-0.655,1.012,0,1.05c1.599,0.094,3.202,0.178,4.805,0.263c-0.138,5.857-0.443,11.722-0.777,17.579
			c-2.582-0.105-5.164-0.236-7.741-0.402c-0.987-0.063-0.983,1.513,0,1.576c2.551,0.164,5.1,0.313,7.648,0.45
			c-0.361,6.274-0.736,12.536-0.957,18.769c-2.204,0.081-4.408,0.172-6.611,0.283c-0.733,0.037-0.722,1.101,0,1.16
			c2.179,0.177,4.364,0.321,6.552,0.442c-0.194,6.258-0.298,12.515-0.303,18.771c-2.089,0.15-4.176,0.311-6.266,0.451
			c-0.774,0.052-0.788,1.274,0,1.248c2.091-0.069,4.183-0.14,6.276-0.213c0.008,5.762,0.089,11.522,0.255,17.279
			c-2.375,0.046-4.75,0.107-7.123,0.19c-0.724,0.026-0.702,1.07,0,1.138c2.388,0.233,4.784,0.429,7.185,0.592
			c0.158,4.957,0.38,9.912,0.653,14.865c-2.005-0.169-4.008-0.349-6.01-0.557c-0.767-0.08-0.755,1.14,0,1.226
			c2.025,0.23,4.052,0.437,6.078,0.633c0.282,4.946,0.626,9.889,1.022,14.83c-0.384-0.039-0.767-0.09-1.151-0.128
			c-0.544-0.053-0.644,0.834-0.127,0.967c0.457,0.118,0.918,0.225,1.376,0.339c0.143,1.751,0.276,3.501,0.434,5.251
			c0.134,1.487,2.415,1.504,2.283,0c-0.136-1.557-0.25-3.117-0.375-4.675c4.952,1.164,9.959,2.133,14.973,3.039
			c0.188,1.107,0.389,2.213,0.62,3.312c0.368,1.748,2.98,1.008,2.613-0.739c-0.145-0.688-0.274-1.378-0.4-2.069
			c2.772,0.49,5.542,0.97,8.304,1.459c1.232,0.218,2.465,0.438,3.698,0.659c0.031,0.319,0.049,0.64,0.083,0.959
			c0.172,1.658,2.714,1.692,2.56,0c-0.015-0.164-0.022-0.33-0.036-0.494c7.221,1.287,14.458,2.531,21.74,3.331
			c3.518,0.387,7.014,0.61,10.487,0.667c0.001,0.043,0.001,0.088,0.002,0.131c0.041,1.969,3.025,1.976,2.987,0
			c-0.001-0.041-0.002-0.083-0.002-0.125c4.758-0.057,9.469-0.446,14.125-1.183c0.668,0.513,1.765,0.381,2.255-0.387
			c3.716-0.682,7.394-1.595,11.031-2.748c-0.004,0.436-0.004,0.872-0.009,1.309c-0.022,2.141,3.218,2.142,3.242,0
			c0.009-0.804,0.012-1.607,0.02-2.41c2.999-1.079,5.97-2.317,8.908-3.742C439.237,655.654,437.657,652.9,435.853,653.773z
			 M425.368,631.206c-3.34,0.701-6.691,1.342-10.047,1.95c0.051-3.671,0.092-7.342,0.11-11.015c3.308-0.209,6.607-0.468,9.891-0.786
			C425.342,624.639,425.359,627.922,425.368,631.206z M346.078,619.135c-0.093-5.431-0.18-10.861-0.269-16.291
			c4.588-0.195,9.178-0.408,13.769-0.639c-0.052,5.783-0.103,11.565-0.152,17.348c-0.004,0.408-0.01,0.818-0.015,1.227
			c-4.437,0.015-8.874,0.007-13.311-0.001C346.093,620.229,346.087,619.682,346.078,619.135z M345.328,577.307
			c-0.104-4.642-0.225-9.284-0.342-13.926c5.013,0.109,10.027,0.135,15.043,0.066c-0.062,4.229-0.129,8.458-0.182,12.687
			c-0.02,1.534-0.031,3.068-0.049,4.601c-4.799,0.102-9.599,0.181-14.399,0.261C345.374,579.767,345.356,578.536,345.328,577.307z
			 M393.214,458.512c-0.09-2.315-0.168-4.631-0.252-6.947c4.515-0.277,9.029-0.576,13.541-0.9c0.281,4.214,0.557,8.43,0.826,12.645
			c-4.631,0.564-9.259,1.159-13.884,1.777C393.365,462.896,393.299,460.704,393.214,458.512z M420.991,446.917
			c-4.012,0.327-8.023,0.667-12.034,1.025c-0.351-4.44-0.72-8.879-1.109-13.317c4.026-0.314,8.054-0.607,12.087-0.874
			C420.362,438.13,420.711,442.52,420.991,446.917z M407.589,431.747c-0.464-5.162-0.964-10.322-1.506-15.476
			c3.869-0.047,7.735-0.123,11.596-0.224c0.805,5.023,1.462,10.064,1.996,15.122C415.672,431.291,411.638,431.481,407.589,431.747z
			 M405.236,431.916c-4.306,0.315-8.616,0.717-12.91,1.223c-0.185-5.609-0.368-11.218-0.557-16.827
			c4.137,0.02,8.273,0.012,12.409-0.029C404.528,421.495,404.881,426.706,405.236,431.916z M405.434,434.82
			c0.303,4.456,0.607,8.912,0.906,13.368c-4.487,0.408-8.971,0.842-13.453,1.297c-0.162-4.534-0.32-9.07-0.47-13.604
			C396.755,435.518,401.094,435.164,405.434,434.82z M407.495,465.974c0.378,5.986,0.738,11.974,1.075,17.963
			c-4.813,0.217-9.625,0.458-14.437,0.707c-0.184-5.77-0.399-11.538-0.608-17.306C398.183,466.892,402.839,466.436,407.495,465.974z
			 M408.716,486.494c0.252,4.587,0.491,9.176,0.708,13.767c0.03,0.639,0.055,1.277,0.085,1.916
			c-4.959-0.138-9.917-0.251-14.876-0.314c-0.142-5.05-0.282-10.101-0.441-15.151C399.034,486.653,403.876,486.586,408.716,486.494z
			 M409.624,504.757c0.26,5.73,0.498,11.461,0.715,17.193c-5.046,0.387-10.098,0.717-15.155,0.972
			c-0.151-6.219-0.309-12.438-0.481-18.656C399.679,504.395,404.652,504.566,409.624,504.757z M411.993,604.007
			c0.012,4.823-0.011,9.644-0.052,14.465c-4.969,0.315-9.937,0.654-14.907,0.974c-0.109-6.554-0.222-13.109-0.332-19.663
			c5.093-0.421,10.181-0.881,15.261-1.391C411.973,600.264,411.989,602.136,411.993,604.007z M362.486,602.059
			c4.445-0.232,8.889-0.489,13.332-0.767c0.018,1.522,0.03,3.043,0.048,4.565c0.061,4.889,0.122,9.778,0.183,14.667
			c-4.568,0.145-9.138,0.216-13.708,0.246c0.004-0.406,0.013-0.812,0.016-1.218C362.401,613.721,362.444,607.89,362.486,602.059z
			 M362.657,563.415c4.246-0.088,8.497-0.263,12.75-0.508c0.055,5.775,0.124,11.55,0.185,17.326
			c-4.326,0.195-8.653,0.34-12.983,0.443c0.007-1.514,0.019-3.028,0.025-4.542C362.65,571.894,362.651,567.655,362.657,563.415z
			 M378.553,582.992c4.856-0.171,9.715-0.371,14.574-0.608c0.094,4.679,0.192,9.358,0.288,14.037
			c-4.908,0.436-9.816,0.874-14.724,1.313C378.646,592.82,378.6,587.906,378.553,582.992z M378.525,580.098
			c-0.056-5.788-0.111-11.576-0.171-17.365c4.796-0.317,9.587-0.714,14.371-1.191c0.111,5.899,0.224,11.798,0.341,17.698
			C388.223,579.563,383.376,579.852,378.525,580.098z M379.246,559.807c-0.308,0.025-0.616,0.043-0.924,0.067
			c-0.054-5.154-0.111-10.308-0.17-15.463c4.755-0.109,9.506-0.285,14.251-0.529c0.087,4.879,0.172,9.758,0.263,14.638
			C388.2,559.014,383.727,559.455,379.246,559.807z M375.377,560.085c-4.231,0.304-8.47,0.563-12.716,0.765
			c0.006-5.436,0.007-10.872,0-16.308c4.194,0.019,8.39-0.01,12.586-0.083C375.29,549.668,375.329,554.877,375.377,560.085z
			 M375.623,583.096c0.054,4.966,0.1,9.931,0.159,14.897c-4.425,0.396-8.85,0.79-13.275,1.177
			c0.036-5.216,0.061-10.432,0.088-15.647C366.949,583.396,371.295,583.245,375.623,583.096z M378.722,601.106
			c4.926-0.321,9.849-0.675,14.768-1.064c0.05,2.404,0.098,4.807,0.148,7.211c0.087,4.13,0.173,8.26,0.26,12.39
			c-4.999,0.311-10,0.581-15,0.773C378.84,613.979,378.78,607.542,378.722,601.106z M396.641,596.137
			c-0.079-4.641-0.16-9.281-0.242-13.921c5.143-0.269,10.284-0.582,15.421-0.948c0.055,4.516,0.096,9.032,0.125,13.548
			C406.843,595.246,401.741,595.686,396.641,596.137z M396.341,579.013c-0.106-5.94-0.211-11.88-0.324-17.82
			c3.308-0.357,6.613-0.738,9.911-1.176c1.836-0.244,3.676-0.53,5.517-0.813c0.135,6.212,0.253,12.425,0.337,18.637
			C406.637,578.26,401.49,578.653,396.341,579.013z M410.831,556.16c-4.949,0.743-9.909,1.405-14.877,1.992
			c-0.094-4.819-0.195-9.638-0.296-14.457c5.134-0.3,10.259-0.681,15.368-1.16c0.13,4.513,0.246,9.028,0.35,13.542
			C411.195,556.105,411.013,556.132,410.831,556.16z M395.588,540.262c-0.107-4.954-0.227-9.907-0.345-14.86
			c5.067-0.153,10.134-0.395,15.202-0.712c0.174,4.765,0.337,9.531,0.482,14.297C405.811,539.445,400.699,539.872,395.588,540.262z
			 M392.048,523.063c-4.714,0.212-9.431,0.364-14.149,0.452c-0.083-6.514-0.172-13.028-0.266-19.542
			c4.707,0.048,9.414,0.123,14.119,0.232C391.844,510.491,391.946,516.777,392.048,523.063z M392.086,525.476
			c0.083,5.01,0.17,10.021,0.258,15.032c-4.741,0.347-9.482,0.66-14.224,0.928c-0.061-5.275-0.127-10.551-0.194-15.826
			C382.646,525.632,387.366,525.588,392.086,525.476z M375.226,541.589c-4.187,0.222-8.375,0.409-12.567,0.556
			c-0.007-5.607-0.017-11.213-0.033-16.82c4.16,0.139,8.321,0.23,12.481,0.272C375.145,530.927,375.183,536.258,375.226,541.589z
			 M360.369,542.218c-5.303,0.167-10.61,0.273-15.928,0.298c-0.164-6.043-0.323-12.086-0.484-18.128
			c5.573,0.368,11.145,0.657,16.717,0.862C360.568,530.906,360.467,536.562,360.369,542.218z M360.329,544.526
			c-0.094,5.478-0.182,10.958-0.264,16.437c-5.04,0.212-10.084,0.343-15.129,0.38c-0.146-5.712-0.294-11.423-0.449-17.134
			C349.758,544.377,355.041,544.482,360.329,544.526z M345.454,583.82c4.772-0.011,9.547-0.096,14.314-0.219
			c-0.059,5.272-0.118,10.545-0.167,15.817c-4.609,0.4-9.219,0.79-13.831,1.169C345.677,594.997,345.566,589.409,345.454,583.82z
			 M359.377,623.507c-0.07,5.068-0.167,10.154-0.19,15.24c-4.319,0.072-8.639,0.062-12.958-0.036
			c-0.11-5.072-0.077-10.151-0.106-15.185C350.543,623.569,354.963,623.554,359.377,623.507z M362.305,623.473
			c4.608-0.059,9.205-0.142,13.779-0.212c0.061,4.925,0.123,9.852,0.184,14.777c-4.743,0.321-9.493,0.542-14.244,0.662
			C362.095,633.618,362.226,628.537,362.305,623.473z M378.922,623.219c4.988-0.072,10.01-0.138,15.046-0.243
			c0.093,4.452,0.187,8.903,0.281,13.354c-5.055,0.608-10.121,1.108-15.195,1.494C379.009,632.955,378.966,628.087,378.922,623.219z
			 M397.093,622.904c4.936-0.122,9.878-0.293,14.808-0.557c-0.041,3.816-0.088,7.632-0.141,11.447
			c-4.802,0.82-9.618,1.547-14.446,2.171C397.24,631.611,397.166,627.258,397.093,622.904z M425.156,603.116
			c0.061,4.873,0.11,9.747,0.147,14.62c-3.288,0.148-6.575,0.328-9.863,0.526c0.015-6.741-0.004-13.484-0.071-20.225
			c3.236-0.339,6.468-0.698,9.697-1.079C425.095,599.011,425.13,601.064,425.156,603.116z M425.018,593.747
			c-3.232,0.256-6.464,0.515-9.695,0.783c-0.053-4.504-0.118-9.007-0.196-13.507c3.222-0.245,6.441-0.517,9.658-0.809
			C424.871,584.726,424.949,589.237,425.018,593.747z M415.065,577.572c-0.112-6.019-0.233-12.035-0.369-18.043
			c-0.006-0.269-0.014-0.539-0.021-0.81c3.207-0.461,6.418-0.827,9.625-0.878c0.151,6.301,0.293,12.602,0.419,18.904
			C421.502,577.026,418.284,577.303,415.065,577.572z M424.225,554.631c-3.209,0.088-6.424,0.495-9.63,0.965
			c-0.11-4.459-0.237-8.918-0.378-13.375c3.23-0.329,6.452-0.697,9.666-1.106C424.002,545.62,424.115,550.125,424.225,554.631z
			 M423.797,537.779c-3.234,0.316-6.466,0.622-9.696,0.919c-0.159-4.737-0.335-9.474-0.529-14.211
			c3.281-0.227,6.561-0.494,9.842-0.794C423.544,528.388,423.672,533.083,423.797,537.779z M423.333,520.816
			c-3.287,0.322-6.578,0.618-9.872,0.888c-0.239-5.61-0.505-11.217-0.792-16.824c3.412,0.14,6.821,0.293,10.23,0.461
			C423.045,510.5,423.19,515.658,423.333,520.816z M422.718,498.892c0.035,1.251,0.07,2.502,0.106,3.753
			c-3.431-0.145-6.862-0.271-10.292-0.377c-0.277-5.28-0.574-10.558-0.893-15.836c3.59-0.077,7.179-0.177,10.767-0.293
			C422.5,490.393,422.599,494.645,422.718,498.892z M422.342,483.41c-3.621,0.114-7.241,0.245-10.86,0.4
			c-0.373-6.039-0.776-12.077-1.202-18.112c3.852-0.387,7.701-0.796,11.549-1.214C422.046,470.79,422.2,477.102,422.342,483.41z
			 M410.083,462.984c-0.171-2.375-0.336-4.75-0.515-7.123c-0.135-1.793-0.275-3.587-0.415-5.38
			c4.002-0.295,8.003-0.606,12.001-0.931c0.235,4.04,0.424,8.085,0.578,12.134C417.847,462.087,413.965,462.522,410.083,462.984z
			 M414.529,399.994c1.052,4.469,1.945,8.958,2.717,13.463c-3.815,0.001-7.633,0.025-11.454,0.079
			c-0.476-4.398-0.989-8.792-1.539-13.179C407.677,400.201,411.102,400.082,414.529,399.994z M391.233,401.105
			c3.967-0.272,7.937-0.505,11.909-0.694c0.279,4.388,0.563,8.773,0.856,13.159c-4.104,0.067-8.207,0.164-12.31,0.291
			C391.542,409.61,391.392,405.358,391.233,401.105z M375.815,416.082c5.016,0.118,10.038,0.193,15.064,0.223
			c0.027,5.662,0.059,11.324,0.099,16.986c-4.933,0.605-9.83,1.361-14.665,2.256C376.141,429.058,375.973,422.57,375.815,416.082z
			 M376.354,437.184c4.883-0.381,9.765-0.778,14.643-1.185c0.034,4.557,0.064,9.115,0.106,13.672
			c-4.804,0.495-9.603,1.02-14.399,1.577C376.594,446.559,376.477,441.871,376.354,437.184z M376.949,462.386
			c-0.064-3.315-0.142-6.63-0.219-9.946c4.797-0.224,9.592-0.479,14.388-0.766c0.042,4.569,0.097,9.138,0.146,13.708
			c-4.746,0.64-9.489,1.3-14.228,1.968C377.006,465.695,376.98,464.04,376.949,462.386z M377.064,468.929
			c4.74-0.465,9.482-0.924,14.224-1.378c0.064,5.743,0.13,11.486,0.203,17.229c-4.712,0.247-9.424,0.495-14.137,0.73
			C377.264,479.983,377.164,474.456,377.064,468.929z M377.379,486.919c4.713-0.065,9.426-0.119,14.139-0.174
			c0.065,5.032,0.129,10.064,0.202,15.096c-4.706-0.046-9.412-0.055-14.119-0.037C377.528,496.842,377.459,491.881,377.379,486.919z
			 M374.952,503.946c0.038,6.54,0.095,13.08,0.14,19.621c-4.157,0.055-8.315,0.062-12.471,0.015
			c-0.019-6.553-0.039-13.106-0.063-19.66C366.689,503.905,370.82,503.914,374.952,503.946z M343.453,504.191
			c5.876-0.139,11.754-0.234,17.633-0.267c-0.13,6.542-0.255,13.084-0.379,19.626c-5.599-0.085-11.196-0.263-16.785-0.545
			C343.755,516.734,343.601,510.463,343.453,504.191z M328.997,523.217c4.594,0.416,9.189,0.783,13.783,1.096
			c0.015,6.069,0.032,12.139,0.043,18.207c-4.34,0.007-8.687-0.034-13.041-0.136C329.811,535.975,329.609,529.58,328.997,523.217z
			 M329.773,543.599c4.341,0.221,8.693,0.406,13.054,0.555c0.011,5.735,0.027,11.472,0.045,17.207
			c-4.555,0.011-9.107-0.066-13.653-0.223C329.491,555.29,329.721,549.439,329.773,543.599z M328.343,580.828
			c0.194-5.996,0.51-12.009,0.797-18.025c4.582,0.232,9.162,0.413,13.741,0.533c0.019,5.277,0.035,10.553,0.069,15.83
			c0.004,0.625,0.014,1.249,0.019,1.873c-4.882,0.086-9.763,0.194-14.64,0.355C328.335,581.205,328.337,581.016,328.343,580.828z
			 M328.279,583.467c4.892,0.229,9.802,0.333,14.718,0.35c0.047,5.659,0.1,11.318,0.169,16.977
			c-5.048,0.409-10.098,0.796-15.149,1.165C328.013,595.794,328.105,589.629,328.279,583.467z M328.026,603.53
			c5.052-0.178,10.109-0.369,15.167-0.577c0.075,5.94,0.154,11.881,0.226,17.821c-5.044-0.007-10.086,0.01-15.126,0.086
			C328.124,615.085,328.044,609.308,328.026,603.53z M328.37,622.954c5.009,0.297,10.04,0.464,15.078,0.541
			c0.042,5.025,0.012,10.088,0.114,15.147c-4.851-0.15-9.7-0.408-14.542-0.78C328.748,632.895,328.531,627.926,328.37,622.954z
			 M330.103,654.067c-0.389-4.954-0.733-9.911-1.014-14.873c4.834,0.439,9.672,0.778,14.511,1.022c0.14,5.306,0.461,10.6,1.2,15.83
			C339.91,655.292,335.013,654.616,330.103,654.067z M347.587,656.473c-0.81-5.316-1.165-10.716-1.32-16.136
			c4.303,0.184,8.608,0.287,12.91,0.311c0,5.954,0.154,11.904,0.618,17.817C355.726,657.796,351.659,657.119,347.587,656.473z
			 M361.995,640.662c4.77-0.012,9.538-0.122,14.301-0.335c0.086,6.899,0.172,13.798,0.258,20.697
			c-4.715-0.639-9.42-1.366-14.121-2.131C362.017,652.84,361.933,646.754,361.995,640.662z M381.807,661.706
			c-0.846-0.1-1.689-0.221-2.535-0.329c-0.067-7.065-0.132-14.13-0.197-21.195c5.084-0.27,10.161-0.66,15.23-1.166
			c0.164,7.844,0.329,15.688,0.494,23.532C390.498,662.504,386.166,662.221,381.807,661.706z M397.795,662.533
			c-0.151-7.94-0.295-15.882-0.434-23.824c4.796-0.525,9.582-1.153,14.358-1.895c-0.114,8.183-0.227,16.365-0.274,24.55
			C406.941,662.075,402.388,662.453,397.795,662.533z M414.575,660.812c0.339-8.187,0.573-16.386,0.709-24.592
			c3.369-0.563,6.734-1.166,10.091-1.841c0.011,7.884-0.021,15.769-0.087,23.653C421.754,659.196,418.181,660.114,414.575,660.812z"
			/>
	</g>
	<g>
		<path style="fill:#EBCE94;" d="M398.648,232.193c-0.483-0.355-0.965-0.704-1.444-1.036c-18.26-12.652-43.363-12.026-61.768-0.021
			c-6.738,4.395-11.753,9.05-14.855,15.207c-2.61,3.13-4.354,7.509-5.877,11.584c-3.656,9.781-5.839,20.217-6.398,30.761
			c-0.369,6.951-0.035,13.991,1.564,20.732c1.613,6.798,4.475,13.156,7.317,19.459c1.28,2.84,2.6,5.74,4.684,7.946
			c3.89,4.119,9.759,5.147,14.122,8.659c2.884,2.322,5.07,5.697,8.307,7.378c3.237,1.681,8.223,0.384,8.597-3.499
			c0.186-1.929-0.835-3.715-1.685-5.418c-4.015-8.044-4.855-17.894-2.269-26.604c1.471-4.954,3.98-9.506,5.229-14.532
			c1.402-5.641,1.126-11.762-0.775-17.227c-0.057-0.164-0.131-0.321-0.191-0.484c0.081-1.208,0.158-2.425,0.227-3.671
			c0.053-0.958-0.359-3.967-0.841-6.957c-0.045-0.27-0.088-0.489-0.132-0.772c-0.764-4.851-1.908-10.841,1.227-14.953
			c6.216-8.153,18.385,0.241,25.816,2.58c4.405,1.387,20.456-0.073,23.005,2.298c2.809,2.612,2.367,9.892,1.166,16.502
			c0.489-0.71,0.959-1.435,1.399-2.184c2.614-5.875,3.75-12.889,3.572-19.175C408.357,248.604,404.139,239.871,398.648,232.193z"/>
		<path style="fill:#4D4D4D;" d="M344.418,351.806c1.305-1.152,2.698-2.203,4.165-3.141c1.191-0.762,2.594-1.475,3.961-1.115
			c1.101,0.29,1.907,1.209,2.642,2.082c1.143,1.358,2.285,2.717,3.428,4.075c0.518,0.616,1.046,1.249,1.324,2.005
			c0.391,1.066,0.234,2.283-0.255,3.308c-0.488,1.025-1.281,1.875-2.156,2.596c-1.308,1.077-2.823,1.9-4.436,2.409
			c-1.511,0.477-3.184,0.67-4.659,0.092c-0.842-0.33-1.574-0.894-2.235-1.513c-1.847-1.735-3.215-3.979-3.914-6.419
			C341.781,354.433,343.168,352.909,344.418,351.806z"/>
		<path style="fill:#EBCE94;" d="M349.72,366.62c0.209,1.64,0.965,3.147,1.578,4.681c0.612,1.534,1.093,3.216,0.719,4.825
			c-0.419,1.804-1.822,3.184-2.778,4.77c-2.373,3.937-1.684,9.472,1.582,12.702c1.448,1.432,3.396,2.546,4.042,4.48
			c0.567,1.696-0.044,3.549,0.06,5.334c0.109,1.882,1.063,3.697,2.548,4.85c1.436,1.115,3.408,1.724,4.201,3.363
			c0.554,1.144,0.381,2.547,0.975,3.67c1.49-1.356,2.997-2.731,4.095-4.421c1.098-1.691,1.761-3.76,1.378-5.741
			c-0.383-1.98-1.771-3.788-1.549-5.792c0.134-1.213,0.844-2.27,1.477-3.311c1.839-3.022,3.198-6.81,1.773-10.049
			c-0.998-2.269-3.193-3.832-4.214-6.091c-0.867-1.92-0.788-4.146-0.346-6.207c0.626-2.915,1.917-6.059,0.586-8.725
			c-0.428-0.856-1.095-1.566-1.793-2.219c-1.76-1.645-3.877-3.044-6.262-3.355C353.951,358.884,349.196,362.52,349.72,366.62z"/>
	</g>
	<g>
		<g>
			<g>
				<g>
					<path style="fill:#EADDD0;" d="M398.443,470.047c-0.052,0.412-0.078,0.814-0.147,1.23c-0.389,2.689-0.778,5.379-1.166,8.068
						l-0.005-0.001c-0.395,2.883-0.7,5.778-1.154,8.659c-0.345,2.182-0.964,4.136-1.697,5.986
						c19.253,2.915,38.505,5.831,57.758,8.745c1.03-5.128,2.06-10.256,3.09-15.384C436.133,481.979,417.253,476.14,398.443,470.047z
						"/>
				</g>
			</g>
		</g>
		<path style="fill:#B3953A;" d="M403.998,469.233c-0.238-0.296-0.627-0.414-0.992-0.517c-3.517-0.99-7.033-1.979-10.549-2.969
			c-0.106-0.03-0.218-0.06-0.324-0.034c-0.17,0.042-0.275,0.208-0.36,0.361c-0.287,0.509-0.577,1.03-0.868,1.547
			c-2.436-0.774-4.875-1.537-7.3-2.349c-11.89-3.981-20.656-11.855-25.539-22.327c-10.176-21.818-11.674-44.913-16.17-67.537
			c-4.964-24.98-30.374-20.792-34.801-0.97c-7.099,31.785,1.558,67.838,23.443,97.637c3.296,4.489,7.04,8.978,12.143,11.872
			c5.263,2.984,11.392,3.953,17.303,4.848c7.401,1.121,14.802,2.242,22.203,3.362c-0.169,0.488-0.347,0.973-0.504,1.464
			c-0.084,0.263-0.159,0.574,0.004,0.796c0.115,0.158,0.317,0.221,0.505,0.273c4.307,1.204,8.707,2.037,13.1,2.87
			c3.356-7.17,4.765-15.095,7.592-22.491c0.578-1.51,1.221-3.026,1.354-4.638C404.273,470.016,404.26,469.558,403.998,469.233z"/>
		<path style="fill:#EADDD0;" d="M460.616,503.784c7.845,1.77,15.768,3.195,23.737,4.272c2.689,0.363,5.613,0.642,7.941-0.755
			c1.384-0.831,2.396-2.178,3.126-3.621c0.909-1.798,1.419-3.961,0.648-5.823c-0.641-1.548-2.055-2.627-3.489-3.485
			c-1.917-1.146-3.985-2.037-6.134-2.642c-0.426-0.12-0.885-0.248-1.16-0.595c-0.193-0.243-0.264-0.557-0.383-0.844
			c-0.624-1.505-2.422-2.073-4.013-2.402c-7.342-1.518-21.86-1.453-29.356-1.498c-0.853-0.005-1.737-0.001-2.51,0.36
			c-1.069,0.5-1.739,1.611-2.072,2.747c-0.333,1.136,6.586,2.047,6.381,3.213c-0.285,1.618-0.853,3.162-1.327,4.73
			c-0.306,1.011-1.35,3.577-0.745,4.58c0.596,0.987,2.952,0.581,3.961,0.708C457.041,502.957,458.829,503.381,460.616,503.784z"/>
	</g>
</g>
</svg>
