<svg width="13" height="13" viewBox="0 0 13 13" fill="none" xmlns="http://www.w3.org/2000/svg">
<g clip-path="url(#clip0_113_2287)">
<path d="M8.17197 6.87891L8.92947 11.1419C8.93795 11.1921 8.93091 11.2437 8.90928 11.2898C8.88765 11.3359 8.85247 11.3743 8.80843 11.3998C8.7644 11.4254 8.71362 11.4369 8.66287 11.4328C8.61213 11.4287 8.56384 11.4092 8.52447 11.3769L6.73447 10.0334C6.64806 9.96885 6.54308 9.93397 6.43522 9.93397C6.32735 9.93397 6.22238 9.96885 6.13597 10.0334L4.34297 11.3764C4.30363 11.4086 4.2554 11.4281 4.20472 11.4322C4.15403 11.4363 4.10331 11.4248 4.0593 11.3993C4.0153 11.3739 3.98011 11.3356 3.95843 11.2896C3.93675 11.2436 3.92961 11.1921 3.93797 11.1419L4.69497 6.87891" stroke="white" stroke-linecap="round" stroke-linejoin="round"/>
<path d="M6.43359 7.43359C8.09045 7.43359 9.43359 6.09045 9.43359 4.43359C9.43359 2.77674 8.09045 1.43359 6.43359 1.43359C4.77674 1.43359 3.43359 2.77674 3.43359 4.43359C3.43359 6.09045 4.77674 7.43359 6.43359 7.43359Z" stroke="white" stroke-linecap="round" stroke-linejoin="round"/>
</g>
<defs>
<clipPath id="clip0_113_2287">
<rect width="12" height="12" fill="white" transform="translate(0.433594 0.433594)"/>
</clipPath>
</defs>
</svg>
