<svg width="49" height="49" viewBox="0 0 49 49" fill="none" xmlns="http://www.w3.org/2000/svg">
<path d="M28.744 8.43359C29.4656 8.43358 30.1737 8.62877 30.7934 8.99847C31.4131 9.36817 31.9212 9.89861 32.264 10.5336L33.236 12.3336C33.5788 12.9686 34.0869 13.499 34.7066 13.8687C35.3263 14.2384 36.0344 14.4336 36.756 14.4336H40.75C41.8109 14.4336 42.8283 14.855 43.5784 15.6052C44.3286 16.3553 44.75 17.3727 44.75 18.4336V36.4336C44.75 37.4945 44.3286 38.5119 43.5784 39.262C42.8283 40.0122 41.8109 40.4336 40.75 40.4336H8.75C7.68913 40.4336 6.67172 40.0122 5.92157 39.262C5.17143 38.5119 4.75 37.4945 4.75 36.4336V18.4336C4.75 17.3727 5.17143 16.3553 5.92157 15.6052C6.67172 14.855 7.68913 14.4336 8.75 14.4336H12.744C13.4648 14.4336 14.1723 14.2389 14.7916 13.8699C15.4108 13.501 15.9189 12.9715 16.262 12.3376L17.24 10.5296C17.5831 9.89565 18.0912 9.36621 18.7104 8.99726C19.3297 8.62831 20.0372 8.43355 20.758 8.43359H28.744Z" stroke="#4CAF50" stroke-width="4" stroke-linecap="round" stroke-linejoin="round"/>
<path d="M24.75 32.4336C28.0637 32.4336 30.75 29.7473 30.75 26.4336C30.75 23.1199 28.0637 20.4336 24.75 20.4336C21.4363 20.4336 18.75 23.1199 18.75 26.4336C18.75 29.7473 21.4363 32.4336 24.75 32.4336Z" stroke="#4CAF50" stroke-width="4" stroke-linecap="round" stroke-linejoin="round"/>
</svg>
