<svg width="41" height="41" viewBox="0 0 41 41" fill="none" xmlns="http://www.w3.org/2000/svg">
<path d="M23.7165 27.666V25.9993C23.7165 25.1153 23.3653 24.2674 22.7402 23.6423C22.115 23.0172 21.2672 22.666 20.3831 22.666H15.3831C14.4991 22.666 13.6512 23.0172 13.0261 23.6423C12.401 24.2674 12.0498 25.1153 12.0498 25.9993V27.666" stroke="#666666" stroke-width="1.66667" stroke-linecap="round" stroke-linejoin="round"/>
<path d="M23.7168 12.7725C24.4316 12.9578 25.0646 13.3752 25.5165 13.9592C25.9684 14.5432 26.2136 15.2607 26.2136 15.9991C26.2136 16.7376 25.9684 17.4551 25.5165 18.0391C25.0646 18.6231 24.4316 19.0405 23.7168 19.2258" stroke="#666666" stroke-width="1.66667" stroke-linecap="round" stroke-linejoin="round"/>
<path d="M28.7168 27.6661V25.9994C28.7162 25.2609 28.4704 24.5434 28.0179 23.9597C27.5654 23.376 26.9319 22.9591 26.2168 22.7744" stroke="#666666" stroke-width="1.66667" stroke-linecap="round" stroke-linejoin="round"/>
<path d="M17.8831 19.3327C19.7241 19.3327 21.2165 17.8403 21.2165 15.9993C21.2165 14.1584 19.7241 12.666 17.8831 12.666C16.0422 12.666 14.5498 14.1584 14.5498 15.9993C14.5498 17.8403 16.0422 19.3327 17.8831 19.3327Z" stroke="#666666" stroke-width="1.66667" stroke-linecap="round" stroke-linejoin="round"/>
</svg>
