<svg width="41" height="41" viewBox="0 0 41 41" fill="none" xmlns="http://www.w3.org/2000/svg">
<g clip-path="url(#clip0_113_1966)">
<path d="M18.4834 22.3828V23.7378C18.4803 24.0233 18.4038 24.3033 18.2614 24.5507C18.119 24.7982 17.9153 25.005 17.6701 25.1511C17.1493 25.5368 16.7258 26.0386 16.433 26.6167C16.1402 27.1948 15.9862 27.8332 15.9834 28.4811" stroke="#666666" stroke-width="1.66667" stroke-linecap="round" stroke-linejoin="round"/>
<path d="M21.8164 22.3828V23.7378C21.8196 24.0233 21.896 24.3033 22.0384 24.5507C22.1808 24.7982 22.3845 25.005 22.6297 25.1511C23.1505 25.5368 23.574 26.0386 23.8668 26.6167C24.1596 27.1948 24.3136 27.8332 24.3164 28.4811" stroke="#666666" stroke-width="1.66667" stroke-linecap="round" stroke-linejoin="round"/>
<path d="M25.1499 17.6657H26.3999C26.9524 17.6657 27.4823 17.4462 27.873 17.0555C28.2637 16.6648 28.4832 16.1349 28.4832 15.5824C28.4832 15.0298 28.2637 14.4999 27.873 14.1092C27.4823 13.7185 26.9524 13.499 26.3999 13.499H25.1499" stroke="#666666" stroke-width="1.66667" stroke-linecap="round" stroke-linejoin="round"/>
<path d="M13.4834 28.499H26.8167" stroke="#666666" stroke-width="1.66667" stroke-linecap="round" stroke-linejoin="round"/>
<path d="M15.1499 17.6663C15.1499 18.9924 15.6767 20.2642 16.6144 21.2019C17.5521 22.1396 18.8238 22.6663 20.1499 22.6663C21.476 22.6663 22.7478 22.1396 23.6854 21.2019C24.6231 20.2642 25.1499 18.9924 25.1499 17.6663V12.6663C25.1499 12.4453 25.0621 12.2334 24.9058 12.0771C24.7495 11.9208 24.5376 11.833 24.3166 11.833H15.9832C15.7622 11.833 15.5503 11.9208 15.394 12.0771C15.2377 12.2334 15.1499 12.4453 15.1499 12.6663V17.6663Z" stroke="#666666" stroke-width="1.66667" stroke-linecap="round" stroke-linejoin="round"/>
<path d="M15.1497 17.6657H13.8997C13.3472 17.6657 12.8173 17.4462 12.4266 17.0555C12.0359 16.6648 11.8164 16.1349 11.8164 15.5824C11.8164 15.0298 12.0359 14.4999 12.4266 14.1092C12.8173 13.7185 13.3472 13.499 13.8997 13.499H15.1497" stroke="#666666" stroke-width="1.66667" stroke-linecap="round" stroke-linejoin="round"/>
</g>
<defs>
<clipPath id="clip0_113_1966">
<rect width="20" height="20" fill="white" transform="translate(10.1499 10.166)"/>
</clipPath>
</defs>
</svg>
