<svg width="21" height="21" viewBox="0 0 21 21" fill="none" xmlns="http://www.w3.org/2000/svg">
<path d="M17.7044 10.7045C17.6263 12.1513 17.1308 13.5445 16.2778 14.7157C15.4248 15.8868 14.2508 16.7859 12.8978 17.3041C11.5447 17.8223 10.0705 17.9375 8.65341 17.6358C7.23628 17.334 5.93689 16.6283 4.91231 15.6038C3.88774 14.5793 3.18184 13.28 2.87994 11.8629C2.57805 10.4458 2.69309 8.97161 3.21116 7.6185C3.72923 6.26539 4.62814 5.09131 5.79924 4.23818C6.97034 3.38506 8.36348 2.88941 9.81026 2.81115C10.1478 2.79282 10.3244 3.19449 10.1453 3.48032C9.546 4.43911 9.28941 5.57271 9.41734 6.69611C9.54528 7.81951 10.0502 8.86639 10.8497 9.66588C11.6492 10.4654 12.6961 10.9703 13.8195 11.0982C14.9429 11.2262 16.0765 10.9696 17.0353 10.3703C17.3219 10.1912 17.7228 10.367 17.7044 10.7045Z" stroke="#666666" stroke-width="1.66667" stroke-linecap="round" stroke-linejoin="round"/>
</svg>
