<svg width="17" height="17" viewBox="0 0 17 17" fill="none" xmlns="http://www.w3.org/2000/svg">
<g clip-path="url(#clip0_113_1156)">
<path d="M14.7506 7.31705C15.0551 8.81125 14.8381 10.3647 14.1359 11.7182C13.4336 13.0718 12.2885 14.1437 10.8916 14.7553C9.49471 15.3668 7.93037 15.4809 6.45949 15.0786C4.9886 14.6764 3.70008 13.782 2.8088 12.5447C1.91753 11.3073 1.47737 9.80187 1.56173 8.27931C1.64609 6.75674 2.24987 5.30911 3.27239 4.17783C4.2949 3.04655 5.67434 2.3 7.18066 2.06269C8.68699 1.82537 10.2291 2.11162 11.55 2.87372" stroke="#4CAF50" stroke-width="1.33333" stroke-linecap="round" stroke-linejoin="round"/>
<path d="M6.21655 7.98405L8.21655 9.98405L14.8832 3.31738" stroke="#4CAF50" stroke-width="1.33333" stroke-linecap="round" stroke-linejoin="round"/>
</g>
<defs>
<clipPath id="clip0_113_1156">
<rect width="16" height="16" fill="white" transform="translate(0.216553 0.650391)"/>
</clipPath>
</defs>
</svg>
