<svg width="37" height="33" viewBox="0 0 37 33" fill="none" xmlns="http://www.w3.org/2000/svg">
<g clip-path="url(#clip0_113_2267)">
<path d="M24.4828 12.7581C24.8353 12.4057 25.0333 11.9277 25.0334 11.4293C25.0335 10.9309 24.8355 10.4529 24.4832 10.1004C24.1308 9.74792 23.6528 9.54987 23.1544 9.5498C22.656 9.54974 22.178 9.74767 21.8255 10.1001L12.9282 18.9994C12.7734 19.1537 12.6589 19.3437 12.5948 19.5527L11.7142 22.4541C11.6969 22.5117 11.6956 22.573 11.7104 22.6313C11.7252 22.6896 11.7554 22.7429 11.798 22.7854C11.8406 22.8279 11.8939 22.8581 11.9523 22.8728C12.0106 22.8874 12.0719 22.886 12.1295 22.8687L15.0315 21.9887C15.2403 21.9252 15.4303 21.8115 15.5848 21.6574L24.4828 12.7581Z" stroke="#333333" stroke-width="1.33333" stroke-linecap="round" stroke-linejoin="round"/>
</g>
<defs>
<clipPath id="clip0_113_2267">
<rect width="16" height="16" fill="white" transform="translate(10.3667 8.2168)"/>
</clipPath>
</defs>
</svg>
