<svg width="17" height="16" viewBox="0 0 17 16" fill="none" xmlns="http://www.w3.org/2000/svg">
<path d="M7.33334 13.3333C7.33328 13.4572 7.36774 13.5787 7.43286 13.6841C7.49798 13.7895 7.59118 13.8746 7.702 13.93L9.03534 14.5967C9.137 14.6475 9.24996 14.6714 9.3635 14.6663C9.47703 14.6612 9.58737 14.6271 9.68402 14.5673C9.78068 14.5075 9.86045 14.424 9.91575 14.3247C9.97105 14.2254 10.0001 14.1137 10 14V9.33333C10.0002 9.00292 10.123 8.68433 10.3447 8.43933L15.16 3.11333C15.2463 3.01771 15.3031 2.89912 15.3234 2.77192C15.3437 2.64472 15.3268 2.51435 15.2746 2.39658C15.2224 2.27881 15.1372 2.17868 15.0293 2.1083C14.9215 2.03792 14.7955 2.0003 14.6667 2H2.66667C2.53774 2.00005 2.41159 2.03748 2.3035 2.10776C2.19541 2.17804 2.11002 2.27815 2.05767 2.39598C2.00532 2.5138 1.98826 2.64427 2.00855 2.77159C2.02885 2.89892 2.08562 3.01762 2.172 3.11333L6.98867 8.43933C7.21036 8.68433 7.33319 9.00292 7.33334 9.33333V13.3333Z" stroke="#333333" stroke-width="1.33333" stroke-linecap="round" stroke-linejoin="round"/>
</svg>
