<svg width="21" height="21" viewBox="0 0 21 21" fill="none" xmlns="http://www.w3.org/2000/svg">
<path d="M1.8833 8.0675C1.88332 7.14017 2.16463 6.23465 2.69008 5.47055C3.21553 4.70645 3.9604 4.11971 4.82631 3.78783C5.69222 3.45595 6.63843 3.39453 7.53998 3.6117C8.44152 3.82887 9.25599 4.3144 9.8758 5.00416C9.91946 5.05084 9.97224 5.08806 10.0309 5.1135C10.0895 5.13894 10.1527 5.15207 10.2166 5.15207C10.2805 5.15207 10.3438 5.13894 10.4024 5.1135C10.461 5.08806 10.5138 5.05084 10.5575 5.00416C11.1753 4.30991 11.99 3.8203 12.893 3.6005C13.796 3.38069 14.7445 3.44112 15.6124 3.77373C16.4802 4.10635 17.2261 4.69537 17.7509 5.46242C18.2757 6.22946 18.5544 7.13813 18.55 8.0675C18.55 9.97583 17.3 11.4008 16.05 12.6508L11.4733 17.0783C11.318 17.2567 11.1266 17.3999 10.9117 17.4986C10.6968 17.5972 10.4633 17.649 10.2269 17.6505C9.99041 17.652 9.75634 17.6032 9.54021 17.5073C9.32407 17.4113 9.13082 17.2705 8.9733 17.0942L4.3833 12.6508C3.1333 11.4008 1.8833 9.98416 1.8833 8.0675Z" stroke="white" stroke-width="1.66667" stroke-linecap="round" stroke-linejoin="round"/>
</svg>
