<svg width="21" height="21" viewBox="0 0 21 21" fill="none" xmlns="http://www.w3.org/2000/svg">
<path d="M10.2166 18.5007C14.819 18.5007 18.55 14.7697 18.55 10.1673C18.55 5.56494 14.819 1.83398 10.2166 1.83398C5.61426 1.83398 1.8833 5.56494 1.8833 10.1673C1.8833 14.7697 5.61426 18.5007 10.2166 18.5007Z" stroke="#666666" stroke-width="1.66667" stroke-linecap="round" stroke-linejoin="round"/>
<path d="M7.79199 7.66649C7.98791 7.10955 8.37462 6.63991 8.88362 6.34077C9.39262 6.04162 9.99107 5.93227 10.573 6.03208C11.1549 6.1319 11.6827 6.43443 12.0629 6.8861C12.4431 7.33777 12.6512 7.90943 12.6503 8.49982C12.6503 10.1665 10.1503 10.9998 10.1503 10.9998" stroke="#666666" stroke-width="1.66667" stroke-linecap="round" stroke-linejoin="round"/>
<path d="M10.2168 14.334H10.2251" stroke="#666666" stroke-width="1.66667" stroke-linecap="round" stroke-linejoin="round"/>
</svg>
