<svg width="21" height="21" viewBox="0 0 21 21" fill="none" xmlns="http://www.w3.org/2000/svg">
<path d="M12.8501 17.7168V11.0501C12.8501 10.8291 12.7623 10.6172 12.606 10.4609C12.4497 10.3046 12.2378 10.2168 12.0168 10.2168H8.68343C8.46242 10.2168 8.25046 10.3046 8.09418 10.4609C7.9379 10.6172 7.8501 10.8291 7.8501 11.0501V17.7168" stroke="black" stroke-width="1.66667" stroke-linecap="round" stroke-linejoin="round"/>
<path d="M2.8501 8.54988C2.85004 8.30744 2.90288 8.0679 3.00492 7.84798C3.10697 7.62805 3.25576 7.43304 3.44093 7.27655L9.27426 2.27655C9.57509 2.0223 9.95623 1.88281 10.3501 1.88281C10.744 1.88281 11.1251 2.0223 11.4259 2.27655L17.2593 7.27655C17.4444 7.43304 17.5932 7.62805 17.6953 7.84798C17.7973 8.0679 17.8502 8.30744 17.8501 8.54988V16.0499C17.8501 16.4919 17.6745 16.9158 17.3619 17.2284C17.0494 17.541 16.6255 17.7165 16.1834 17.7165H4.51676C4.07474 17.7165 3.65081 17.541 3.33825 17.2284C3.02569 16.9158 2.8501 16.4919 2.8501 16.0499V8.54988Z" stroke="black" stroke-width="1.66667" stroke-linecap="round" stroke-linejoin="round"/>
</svg>
