<svg width="21" height="21" viewBox="0 0 21 21" fill="none" xmlns="http://www.w3.org/2000/svg">
<g clip-path="url(#clip0_113_2461)">
<path d="M10.2166 19.2008C14.819 19.2008 18.55 15.4699 18.55 10.8675C18.55 6.26514 14.819 2.53418 10.2166 2.53418C5.61426 2.53418 1.8833 6.26514 1.8833 10.8675C1.8833 15.4699 5.61426 19.2008 10.2166 19.2008Z" stroke="#666666" stroke-width="1.66667" stroke-linecap="round" stroke-linejoin="round"/>
<path d="M10.2166 2.53418C8.07683 4.78097 6.8833 7.7648 6.8833 10.8675C6.8833 13.9702 8.07683 16.9541 10.2166 19.2008C12.3564 16.9541 13.55 13.9702 13.55 10.8675C13.55 7.7648 12.3564 4.78097 10.2166 2.53418Z" stroke="#666666" stroke-width="1.66667" stroke-linecap="round" stroke-linejoin="round"/>
<path d="M1.8833 10.8672H18.55" stroke="#666666" stroke-width="1.66667" stroke-linecap="round" stroke-linejoin="round"/>
</g>
<defs>
<clipPath id="clip0_113_2461">
<rect width="20" height="20" fill="white" transform="translate(0.216797 0.867188)"/>
</clipPath>
</defs>
</svg>
