<svg width="21" height="21" viewBox="0 0 21 21" fill="none" xmlns="http://www.w3.org/2000/svg">
<path d="M9.38336 17.3838C7.92008 17.3882 6.50858 16.8425 5.4288 15.855C4.34902 14.8674 3.67984 13.5101 3.55398 12.0522C3.42812 10.5943 3.85477 9.14242 4.74932 7.98441C5.64387 6.82639 6.94097 6.04687 8.38336 5.80046C13.1334 4.88379 14.3834 4.45046 16.05 2.38379C16.8834 4.05046 17.7167 5.86712 17.7167 9.05046C17.7167 13.6338 13.7334 17.3838 9.38336 17.3838Z" stroke="white" stroke-width="1.66667" stroke-linecap="round" stroke-linejoin="round"/>
<path d="M1.8833 18.2168C1.8833 15.7168 3.42497 13.7501 6.11663 13.2168C8.1333 12.8168 10.2166 11.5501 11.05 10.7168" stroke="white" stroke-width="1.66667" stroke-linecap="round" stroke-linejoin="round"/>
</svg>
