<svg width="17" height="17" viewBox="0 0 17 17" fill="none" xmlns="http://www.w3.org/2000/svg">
<path d="M13.55 7.09994C13.55 10.4286 9.8573 13.8953 8.6173 14.9659C8.50178 15.0528 8.36117 15.0998 8.21663 15.0998C8.0721 15.0998 7.93148 15.0528 7.81597 14.9659C6.57597 13.8953 2.8833 10.4286 2.8833 7.09994C2.8833 5.68545 3.4452 4.32889 4.4454 3.3287C5.44559 2.3285 6.80215 1.7666 8.21663 1.7666C9.63112 1.7666 10.9877 2.3285 11.9879 3.3287C12.9881 4.32889 13.55 5.68545 13.55 7.09994Z" stroke="#666666" stroke-width="1.33333" stroke-linecap="round" stroke-linejoin="round"/>
<path d="M8.21667 9.10059C9.32124 9.10059 10.2167 8.20516 10.2167 7.10059C10.2167 5.99602 9.32124 5.10059 8.21667 5.10059C7.11211 5.10059 6.21667 5.99602 6.21667 7.10059C6.21667 8.20516 7.11211 9.10059 8.21667 9.10059Z" stroke="#666666" stroke-width="1.33333" stroke-linecap="round" stroke-linejoin="round"/>
</svg>
