<svg width="17" height="17" viewBox="0 0 17 17" fill="none" xmlns="http://www.w3.org/2000/svg">
<path d="M8.33317 9.53353C8.70136 9.53353 8.99984 9.23505 8.99984 8.86686C8.99984 8.49867 8.70136 8.2002 8.33317 8.2002C7.96498 8.2002 7.6665 8.49867 7.6665 8.86686C7.6665 9.23505 7.96498 9.53353 8.33317 9.53353Z" stroke="#333333" stroke-width="1.33333" stroke-linecap="round" stroke-linejoin="round"/>
<path d="M12.9999 9.53353C13.3681 9.53353 13.6666 9.23505 13.6666 8.86686C13.6666 8.49867 13.3681 8.2002 12.9999 8.2002C12.6317 8.2002 12.3333 8.49867 12.3333 8.86686C12.3333 9.23505 12.6317 9.53353 12.9999 9.53353Z" stroke="#333333" stroke-width="1.33333" stroke-linecap="round" stroke-linejoin="round"/>
<path d="M3.66667 9.53353C4.03486 9.53353 4.33333 9.23505 4.33333 8.86686C4.33333 8.49867 4.03486 8.2002 3.66667 8.2002C3.29848 8.2002 3 8.49867 3 8.86686C3 9.23505 3.29848 9.53353 3.66667 9.53353Z" stroke="#333333" stroke-width="1.33333" stroke-linecap="round" stroke-linejoin="round"/>
</svg>
