<svg width="17" height="17" viewBox="0 0 17 17" fill="none" xmlns="http://www.w3.org/2000/svg">
<path d="M12.8833 7.9502H3.55001C2.81363 7.9502 2.21667 8.54715 2.21667 9.28353V13.9502C2.21667 14.6866 2.81363 15.2835 3.55001 15.2835H12.8833C13.6197 15.2835 14.2167 14.6866 14.2167 13.9502V9.28353C14.2167 8.54715 13.6197 7.9502 12.8833 7.9502Z" stroke="#666666" stroke-width="1.33333" stroke-linecap="round" stroke-linejoin="round"/>
<path d="M4.8833 7.9502V5.28353C4.8833 4.39947 5.23449 3.55163 5.85961 2.92651C6.48473 2.30138 7.33258 1.9502 8.21663 1.9502C9.10069 1.9502 9.94854 2.30138 10.5737 2.92651C11.1988 3.55163 11.55 4.39947 11.55 5.28353V7.9502" stroke="#666666" stroke-width="1.33333" stroke-linecap="round" stroke-linejoin="round"/>
</svg>
