<svg viewBox="0 0 17 17" fill="none" xmlns="http://www.w3.org/2000/svg">
  <path d="M1.92473 8.84943C1.86917 8.69975 1.86917 8.5351 1.92473 8.38543C2.46586 7.07333 3.3844 5.95145 4.56391 5.16203C5.74341 4.3726 7.13076 3.95117 8.55006 3.95117C9.96936 3.95117 11.3567 4.3726 12.5362 5.16203C13.7157 5.95145 14.6343 7.07333 15.1754 8.38543C15.231 8.5351 15.231 8.69975 15.1754 8.84943C14.6343 10.1615 13.7157 11.2834 12.5362 12.0728C11.3567 12.8623 9.96936 13.2837 8.55006 13.2837C7.13076 13.2837 5.74341 12.8623 4.56391 12.0728C3.3844 11.2834 2.46586 10.1615 1.92473 8.84943Z" 
        stroke="#666666" stroke-width="1.33333" stroke-linecap="round" stroke-linejoin="round"/>
  <path d="M8.55005 10.6172C9.65462 10.6172 10.55 9.72176 10.55 8.61719C10.55 7.51262 9.65462 6.61719 8.55005 6.61719C7.44548 6.61719 6.55005 7.51262 6.55005 8.61719C6.55005 9.72176 7.44548 10.6172 8.55005 10.6172Z" 
        stroke="#666666" stroke-width="1.33333" stroke-linecap="round" stroke-linejoin="round"/>
</svg>
