<svg width="17" height="17" viewBox="0 0 17 17" fill="none" xmlns="http://www.w3.org/2000/svg">
<g clip-path="url(#clip0_113_1505)">
<path d="M9.3045 11.3448C9.44219 11.408 9.5973 11.4225 9.7443 11.3858C9.89129 11.3491 10.0214 11.2634 10.1132 11.1428L10.3498 10.8328C10.474 10.6672 10.6351 10.5328 10.8202 10.4402C11.0054 10.3477 11.2095 10.2995 11.4165 10.2995H13.4165C13.7701 10.2995 14.1093 10.44 14.3593 10.69C14.6094 10.9401 14.7498 11.2792 14.7498 11.6328V13.6328C14.7498 13.9864 14.6094 14.3256 14.3593 14.5756C14.1093 14.8257 13.7701 14.9661 13.4165 14.9661C10.2339 14.9661 7.18166 13.7019 4.93122 11.4514C2.68079 9.20099 1.4165 6.14874 1.4165 2.96615C1.4165 2.61252 1.55698 2.27339 1.80703 2.02334C2.05708 1.77329 2.39622 1.63281 2.74984 1.63281H4.74984C5.10346 1.63281 5.4426 1.77329 5.69265 2.02334C5.94269 2.27339 6.08317 2.61252 6.08317 2.96615V4.96615C6.08317 5.17314 6.03498 5.37729 5.94241 5.56243C5.84984 5.74757 5.71543 5.90862 5.54984 6.03281L5.23784 6.26681C5.11545 6.36026 5.02918 6.4932 4.9937 6.64305C4.95821 6.79289 4.97569 6.9504 5.04317 7.08881C5.95429 8.93939 7.45279 10.436 9.3045 11.3448Z" stroke="#333333" stroke-width="1.33333" stroke-linecap="round" stroke-linejoin="round"/>
</g>
<defs>
<clipPath id="clip0_113_1505">
<rect width="16" height="16" fill="white" transform="translate(0.083252 0.299805)"/>
</clipPath>
</defs>
</svg>
