<svg width="21" height="21" viewBox="0 0 21 21" fill="none" xmlns="http://www.w3.org/2000/svg">
<path d="M16.8836 11.5665C16.8836 15.7331 13.967 17.8165 10.5003 19.0248C10.3188 19.0863 10.1216 19.0834 9.94196 19.0165C6.46696 17.8165 3.55029 15.7331 3.55029 11.5665V5.73312C3.55029 5.51211 3.63809 5.30015 3.79437 5.14387C3.95065 4.98759 4.16261 4.89979 4.38363 4.89979C6.05029 4.89979 8.13363 3.89979 9.58363 2.63312C9.76017 2.48229 9.98475 2.39941 10.217 2.39941C10.4492 2.39941 10.6737 2.48229 10.8503 2.63312C12.3086 3.90812 14.3836 4.89979 16.0503 4.89979C16.2713 4.89979 16.4833 4.98759 16.6395 5.14387C16.7958 5.30015 16.8836 5.51211 16.8836 5.73312V11.5665Z" stroke="#666666" stroke-width="1.66667" stroke-linecap="round" stroke-linejoin="round"/>
</svg>
