<svg width="17" height="16" viewBox="0 0 17 16" fill="none" xmlns="http://www.w3.org/2000/svg">
<path d="M6.96414 2.75711C7.00087 2.37067 7.18036 2.01181 7.46754 1.75063C7.75472 1.48945 8.12896 1.34473 8.51714 1.34473C8.90532 1.34473 9.27956 1.48945 9.56674 1.75063C9.85392 2.01181 10.0334 2.37067 10.0701 2.75711C10.0922 3.00675 10.1741 3.24739 10.3089 3.45867C10.4437 3.66995 10.6274 3.84565 10.8444 3.97089C11.0615 4.09614 11.3056 4.16724 11.5559 4.17819C11.8063 4.18913 12.0556 4.1396 12.2828 4.03378C12.6355 3.87363 13.0353 3.85045 13.4041 3.96877C13.773 4.08708 14.0847 4.33841 14.2785 4.67385C14.4723 5.00928 14.5343 5.40482 14.4526 5.78349C14.3708 6.16215 14.1511 6.49685 13.8361 6.72244C13.6311 6.86634 13.4637 7.05751 13.3481 7.27979C13.2325 7.50207 13.1722 7.74891 13.1722 7.99944C13.1722 8.24997 13.2325 8.49681 13.3481 8.71909C13.4637 8.94137 13.6311 9.13254 13.8361 9.27644C14.1511 9.50203 14.3708 9.83673 14.4526 10.2154C14.5343 10.5941 14.4723 10.9896 14.2785 11.325C14.0847 11.6605 13.773 11.9118 13.4041 12.0301C13.0353 12.1484 12.6355 12.1253 12.2828 11.9651C12.0556 11.8593 11.8063 11.8097 11.5559 11.8207C11.3056 11.8316 11.0615 11.9027 10.8444 12.028C10.6274 12.1532 10.4437 12.3289 10.3089 12.5402C10.1741 12.7515 10.0922 12.9921 10.0701 13.2418C10.0334 13.6282 9.85392 13.9871 9.56674 14.2483C9.27956 14.5094 8.90532 14.6542 8.51714 14.6542C8.12896 14.6542 7.75472 14.5094 7.46754 14.2483C7.18036 13.9871 7.00087 13.6282 6.96414 13.2418C6.9421 12.992 6.8602 12.7513 6.72538 12.54C6.59056 12.3286 6.40679 12.1528 6.18963 12.0276C5.97247 11.9023 5.72832 11.8313 5.47786 11.8204C5.2274 11.8095 4.97801 11.8591 4.7508 11.9651C4.39806 12.1253 3.99836 12.1484 3.62947 12.0301C3.26059 11.9118 2.94892 11.6605 2.75513 11.325C2.56133 10.9896 2.49928 10.5941 2.58104 10.2154C2.66281 9.83673 2.88254 9.50203 3.19747 9.27644C3.40255 9.13254 3.56996 8.94137 3.68553 8.71909C3.8011 8.49681 3.86144 8.24997 3.86144 7.99944C3.86144 7.74891 3.8011 7.50207 3.68553 7.27979C3.56996 7.05751 3.40255 6.86634 3.19747 6.72244C2.88298 6.49674 2.66364 6.16217 2.58207 5.78376C2.50051 5.40535 2.56254 5.01014 2.75613 4.67492C2.94971 4.3397 3.26101 4.08843 3.62953 3.96994C3.99805 3.85144 4.39746 3.8742 4.75014 4.03378C4.97731 4.1396 5.22663 4.18913 5.47701 4.17819C5.72738 4.16724 5.97143 4.09614 6.1885 3.97089C6.40557 3.84565 6.58927 3.66995 6.72405 3.45867C6.85883 3.24739 6.94073 3.00675 6.9628 2.75711" stroke="#333333" stroke-width="1.33333" stroke-linecap="round" stroke-linejoin="round"/>
<path d="M8.5166 10C9.62117 10 10.5166 9.10457 10.5166 8C10.5166 6.89543 9.62117 6 8.5166 6C7.41203 6 6.5166 6.89543 6.5166 8C6.5166 9.10457 7.41203 10 8.5166 10Z" stroke="#333333" stroke-width="1.33333" stroke-linecap="round" stroke-linejoin="round"/>
</svg>
