<svg width="21" height="21" viewBox="0 0 21 21" fill="none" xmlns="http://www.w3.org/2000/svg">
<path d="M11.8833 15.5837V5.58366C11.8833 5.14163 11.7077 4.71771 11.3951 4.40515C11.0826 4.09259 10.6587 3.91699 10.2166 3.91699H3.54997C3.10794 3.91699 2.68402 4.09259 2.37146 4.40515C2.0589 4.71771 1.8833 5.14163 1.8833 5.58366V14.7503C1.8833 14.9713 1.9711 15.1833 2.12738 15.3396C2.28366 15.4959 2.49562 15.5837 2.71663 15.5837H4.3833" stroke="white" stroke-width="1.66667" stroke-linecap="round" stroke-linejoin="round"/>
<path d="M12.7167 15.584H7.71667" stroke="white" stroke-width="1.66667" stroke-linecap="round" stroke-linejoin="round"/>
<path d="M16.05 15.5843H17.7166C17.9376 15.5843 18.1496 15.4965 18.3059 15.3402C18.4622 15.184 18.55 14.972 18.55 14.751V11.7093C18.5496 11.5202 18.485 11.3368 18.3666 11.1893L15.4666 7.56431C15.3887 7.46671 15.2898 7.38788 15.1773 7.33364C15.0648 7.27941 14.9415 7.25115 14.8166 7.25098H11.8833" stroke="white" stroke-width="1.66667" stroke-linecap="round" stroke-linejoin="round"/>
<path d="M14.3833 17.2503C15.3038 17.2503 16.05 16.5041 16.05 15.5837C16.05 14.6632 15.3038 13.917 14.3833 13.917C13.4629 13.917 12.7167 14.6632 12.7167 15.5837C12.7167 16.5041 13.4629 17.2503 14.3833 17.2503Z" stroke="white" stroke-width="1.66667" stroke-linecap="round" stroke-linejoin="round"/>
<path d="M6.04997 17.2503C6.97044 17.2503 7.71663 16.5041 7.71663 15.5837C7.71663 14.6632 6.97044 13.917 6.04997 13.917C5.12949 13.917 4.3833 14.6632 4.3833 15.5837C4.3833 16.5041 5.12949 17.2503 6.04997 17.2503Z" stroke="white" stroke-width="1.66667" stroke-linecap="round" stroke-linejoin="round"/>
</svg>
